<svg width="380" height="91" viewBox="0 0 380 91" fill="none" xmlns="http://www.w3.org/2000/svg">
<g opacity="0.91">
<path d="M47.5353 21.6515C47.0493 21.4525 46.4822 21.3729 45.9556 21.3729H18.4926C16.6294 21.3729 15.6977 23.602 16.9939 24.8758L30.6039 38.2505L47.5353 21.6515Z" fill="url(#paint0_linear)"/>
<path d="M49.1556 22.6466L62.3605 35.6233C63.8187 37.0563 63.8187 39.4048 62.3605 40.8776L49.1556 53.8543C48.3049 54.6902 47.1708 55.1679 45.9556 55.1679H18.4926C16.6294 55.1679 15.6977 52.9387 16.9939 51.665L30.6039 38.2903L47.5353 21.6515C48.1429 21.8505 48.71 22.2088 49.1556 22.6466Z" fill="#00B7F1"/>
<path d="M79.8995 48.0029C78.8463 48.0029 77.9147 47.8834 77.0641 47.6446C76.2135 47.4058 75.4438 47.0873 74.7958 46.6893C74.1072 46.2912 73.5401 45.8135 73.054 45.2165C72.5679 44.6194 72.1224 44.0223 71.7578 43.3456L74.9173 41.4747C75.4438 42.5097 76.1729 43.3058 77.0641 43.8631C77.9552 44.4203 78.9679 44.699 80.0615 44.699C81.0337 44.699 81.8438 44.5398 82.4514 44.1815C83.0589 43.8233 83.383 43.266 83.383 42.5495C83.383 41.833 83.0589 41.2757 82.4109 40.9174C81.7628 40.5194 80.7906 40.1611 79.5349 39.8427C78.6843 39.6039 77.8337 39.365 77.0236 39.1262C76.2135 38.8874 75.4438 38.5291 74.7958 38.131C74.1477 37.733 73.6211 37.1757 73.1755 36.5388C72.7705 35.9019 72.5679 35.1058 72.5679 34.1107C72.5679 33.235 72.73 32.4388 73.054 31.7621C73.378 31.0855 73.8641 30.4884 74.4717 30.0107C75.0793 29.533 75.8084 29.1748 76.659 28.8961C77.5096 28.6573 78.4413 28.5379 79.4944 28.5379C80.4666 28.5379 81.3577 28.6573 82.1273 28.8563C82.8969 29.0554 83.626 29.334 84.2336 29.6923C84.8412 30.0505 85.4083 30.4486 85.8539 30.9262C86.2994 31.4039 86.7045 31.8816 87.069 32.399L84.1526 34.5883C83.6665 33.7922 82.9779 33.1155 82.1273 32.6379C81.2767 32.1602 80.3856 31.9214 79.4539 31.9214C78.5628 31.9214 77.8742 32.0806 77.3881 32.4388C76.9021 32.7971 76.659 33.235 76.659 33.7922C76.659 34.5485 76.9831 35.1058 77.6717 35.4641C78.3603 35.8223 79.3324 36.1806 80.5881 36.499C81.4387 36.7378 82.2893 36.9767 83.0995 37.2553C83.9096 37.534 84.6792 37.8922 85.3273 38.2903C85.9754 38.7281 86.5019 39.2456 86.907 39.8825C87.3121 40.5194 87.5146 41.3155 87.5146 42.3106C87.5146 43.0669 87.3526 43.7834 87.069 44.4601C86.7855 45.1368 86.2994 45.7339 85.6918 46.2912C85.0842 46.8485 84.2741 47.2465 83.302 47.565C82.3298 47.8834 81.2362 48.0029 79.8995 48.0029Z" fill="#111D29"/>
<path d="M96.3449 47.963C95.4943 47.963 94.6842 47.8436 93.8335 47.6048C92.9829 47.366 92.2538 46.9679 91.5652 46.4106C90.8766 45.8533 90.35 45.1368 89.945 44.2611C89.5399 43.3456 89.2969 42.2708 89.2969 40.9174C89.2969 39.6039 89.4994 38.4893 89.945 37.5738C90.35 36.6582 90.9171 35.9417 91.5652 35.3845C92.2538 34.8272 92.9829 34.4291 93.8335 34.1903C94.6842 33.9515 95.4943 33.832 96.3449 33.832C97.155 33.832 98.0056 33.9515 98.8157 34.1903C99.6664 34.4291 100.395 34.8272 101.084 35.3845C101.773 35.9417 102.299 36.6582 102.704 37.5738C103.109 38.4893 103.352 39.6039 103.352 40.9174C103.352 42.231 103.15 43.3456 102.704 44.2611C102.299 45.1766 101.732 45.8932 101.084 46.4106C100.395 46.9679 99.6664 47.366 98.8157 47.6048C97.9651 47.8436 97.155 47.963 96.3449 47.963ZM96.3449 45.0572C97.317 45.0572 98.0461 44.6592 98.4917 43.9029C98.9778 43.1466 99.1803 42.1514 99.1803 40.9174C99.1803 40.3602 99.1398 39.8427 99.0183 39.3252C98.8968 38.8078 98.7347 38.3699 98.5322 38.0116C98.2892 37.6534 98.0056 37.3349 97.6411 37.1359C97.2765 36.9369 96.831 36.8175 96.3449 36.8175C95.3322 36.8175 94.6031 37.1757 94.1576 37.932C93.6715 38.6883 93.469 39.6835 93.469 40.8776C93.469 41.4349 93.5095 41.9922 93.631 42.4699C93.7525 42.9475 93.9145 43.4252 94.1171 43.7835C94.3601 44.1417 94.6436 44.4601 95.0082 44.6592C95.3322 44.9776 95.7778 45.0572 96.3449 45.0572Z" fill="#111D29"/>
<path d="M109.631 47.963C109.064 47.963 108.497 47.8834 108.011 47.764C107.525 47.6048 107.079 47.4058 106.714 47.0475C106.35 46.7291 106.066 46.331 105.864 45.8135C105.661 45.2961 105.58 44.699 105.58 44.0223V34.1505H109.793V42.8281C109.793 43.4252 109.914 43.9029 110.157 44.2213C110.401 44.5398 110.846 44.699 111.413 44.699C111.98 44.699 112.507 44.5796 112.993 44.3009C113.479 44.0223 113.965 43.7038 114.411 43.3456V34.1505H118.583V47.6844H114.411V45.5747C114.208 45.8135 113.965 46.0922 113.641 46.3708C113.357 46.6494 112.993 46.9281 112.628 47.1271C112.223 47.3659 111.778 47.565 111.292 47.6844C110.806 47.8834 110.238 47.963 109.631 47.963Z" fill="#111D29"/>
<path d="M121.701 47.6446V34.1107H125.874V36.3796H125.914C126.117 36.101 126.319 35.7825 126.603 35.5039C126.886 35.2252 127.21 34.9466 127.575 34.7078C127.939 34.4689 128.385 34.2699 128.871 34.1107C129.357 33.9515 129.924 33.8718 130.572 33.8718H130.694L130.613 37.4942C130.532 37.4942 130.37 37.4543 130.127 37.4543C129.884 37.4543 129.681 37.4145 129.56 37.4145C128.749 37.4145 128.02 37.6136 127.413 37.9718C126.805 38.3301 126.319 38.7679 125.914 39.2456V47.6446H121.701V47.6446Z" fill="#111D29"/>
<path d="M138.066 47.963C137.256 47.963 136.446 47.8436 135.636 47.6048C134.825 47.366 134.096 46.9679 133.448 46.4106C132.8 45.8533 132.274 45.1368 131.869 44.2611C131.464 43.3456 131.261 42.2708 131.261 40.9174C131.261 39.564 131.464 38.4495 131.909 37.534C132.355 36.6184 132.922 35.9019 133.57 35.3845C134.258 34.8272 134.988 34.4689 135.798 34.2301C136.608 33.9913 137.418 33.8718 138.147 33.8718C139.079 33.8718 139.889 33.9913 140.537 34.2301C141.225 34.4689 141.793 34.7476 142.238 35.1456C142.684 35.5437 143.089 35.9815 143.372 36.4592C143.656 36.9767 143.899 37.4942 144.142 38.0116L140.658 39.166C140.375 38.2903 140.051 37.6932 139.605 37.3747C139.2 37.0563 138.674 36.8971 138.066 36.8971C137.215 36.8971 136.567 37.2553 136.081 37.932C135.595 38.6087 135.352 39.6437 135.352 40.9971C135.352 41.5941 135.393 42.1514 135.514 42.6689C135.636 43.1864 135.798 43.6242 136 43.9825C136.203 44.3407 136.486 44.6592 136.81 44.8582C137.134 45.0572 137.539 45.1766 138.025 45.1766C138.593 45.1766 139.079 45.0174 139.565 44.6592C140.051 44.3009 140.415 43.7038 140.739 42.7883L144.182 43.9427C143.939 44.4601 143.656 44.9776 143.332 45.4553C143.008 45.9728 142.562 46.4106 142.076 46.7689C141.59 47.1669 140.982 47.4456 140.334 47.6844C139.767 47.8436 138.998 47.963 138.066 47.963Z" fill="#111D29"/>
<path d="M152.527 47.963C151.635 47.963 150.744 47.8436 149.894 47.6048C149.043 47.366 148.314 46.9679 147.666 46.4106C147.018 45.8533 146.491 45.1368 146.086 44.2611C145.681 43.3854 145.479 42.2708 145.479 40.9573C145.479 39.6437 145.722 38.5291 146.167 37.6136C146.613 36.698 147.18 35.9815 147.868 35.4641C148.557 34.9068 149.286 34.5087 150.096 34.2699C150.906 34.0311 151.676 33.9117 152.365 33.9117C153.053 33.9117 153.782 34.0311 154.552 34.2301C155.321 34.4291 155.97 34.8272 156.577 35.3845C157.185 35.9417 157.671 36.698 158.076 37.6932C158.481 38.6883 158.683 39.9223 158.683 41.4747V42.0718H149.57C149.691 43.1864 150.015 43.9825 150.582 44.4601C151.149 44.9378 151.878 45.1766 152.77 45.1766C153.58 45.1766 154.349 45.0174 155.078 44.699C155.808 44.3805 156.375 43.9825 156.861 43.5844L158.481 46.0126C156.901 47.2863 154.876 47.963 152.527 47.963ZM155.038 39.6039C154.835 37.733 153.944 36.7777 152.405 36.7777C151.757 36.7777 151.19 37.0165 150.663 37.4544C150.177 37.8922 149.853 38.6087 149.691 39.6039H155.038V39.6039Z" fill="#111D29"/>
<path d="M165.691 47.6446L172.455 28.7767H176.465L183.23 47.6446H178.977L177.559 43.465H171.038L169.579 47.6446H165.691ZM172.05 40.4796H176.546L174.359 34.0709H174.319L172.05 40.4796Z" fill="#111D29"/>
<path d="M190.764 52.7397C189.427 52.7397 188.293 52.6601 187.362 52.5407C186.43 52.4213 185.701 52.2222 185.174 51.9436C184.607 51.665 184.243 51.3465 184 50.9883C183.757 50.5902 183.635 50.1922 183.635 49.7145C183.635 49.0378 183.878 48.4805 184.324 48.0427C184.81 47.6048 185.336 47.2465 185.984 47.0077C185.377 46.6097 185.053 46.0922 185.053 45.3757C185.053 44.8184 185.255 44.3009 185.62 43.8233C186.025 43.3456 186.47 42.9475 187.038 42.5893C186.268 42.1514 185.701 41.5941 185.336 40.9174C184.972 40.2408 184.769 39.5242 184.769 38.6883C184.769 38.0116 184.891 37.3747 185.174 36.7777C185.458 36.1806 185.863 35.6631 186.389 35.2252C186.916 34.7874 187.564 34.4291 188.334 34.1903C189.103 33.9515 189.994 33.832 190.967 33.832C192.02 33.832 192.911 33.9515 193.68 34.2301C194.45 34.5087 195.098 34.867 195.584 35.3049C196.03 34.9068 196.597 34.5884 197.286 34.3495C197.934 34.1107 198.582 33.9515 199.149 33.9117V37.0165C198.906 37.0165 198.582 37.0165 198.177 37.0563C197.772 37.0961 197.326 37.1757 196.799 37.3349C196.961 37.733 197.083 38.1709 197.083 38.6883C197.083 39.365 196.961 40.0019 196.678 40.599C196.394 41.1961 196.03 41.6738 195.503 42.1116C194.977 42.5495 194.369 42.8679 193.599 43.1466C192.83 43.3854 191.979 43.5048 191.007 43.5048C190.602 43.5048 190.237 43.465 189.873 43.4252C189.508 43.3854 189.184 43.3456 188.901 43.266C188.739 43.3854 188.658 43.5048 188.577 43.5844C188.496 43.7038 188.455 43.8233 188.455 43.9427C188.455 44.1815 188.577 44.3805 188.86 44.4203C189.144 44.5 189.508 44.5398 189.994 44.5796L192.06 44.699C194.41 44.7786 196.111 45.1368 197.164 45.7339C198.217 46.331 198.703 47.2863 198.703 48.5601C198.703 49.2368 198.501 49.8737 198.096 50.3912C197.691 50.9087 197.164 51.3465 196.475 51.7048C195.787 52.063 194.936 52.3019 193.964 52.4611C192.951 52.6601 191.898 52.7397 190.764 52.7397ZM191.412 50.6698C192.465 50.6698 193.356 50.5504 194.005 50.3116C194.653 50.0727 195.017 49.7145 195.017 49.2766C195.017 49.0776 194.977 48.8786 194.896 48.7193C194.815 48.5601 194.653 48.4407 194.41 48.3213C194.167 48.2019 193.802 48.1223 193.316 48.0427C192.83 47.963 192.182 47.9232 191.372 47.8834L189.184 47.8038L188.293 47.7242C187.767 48.0825 187.524 48.4805 187.524 48.9582C187.524 49.5553 187.807 49.9931 188.415 50.2718C189.022 50.5504 189.994 50.6698 191.412 50.6698ZM191.048 41.2757C191.817 41.2757 192.425 41.0369 192.789 40.599C193.154 40.1611 193.397 39.5641 193.397 38.8874C193.397 38.2107 193.194 37.6136 192.789 37.1757C192.384 36.7379 191.817 36.499 191.048 36.499C190.278 36.499 189.67 36.7379 189.265 37.1757C188.86 37.6136 188.658 38.2107 188.658 38.8874C188.658 39.5641 188.86 40.1611 189.265 40.599C189.711 41.0369 190.278 41.2757 191.048 41.2757Z" fill="#111D29"/>
<path d="M207.007 47.963C206.116 47.963 205.225 47.8436 204.374 47.6048C203.523 47.366 202.794 46.9679 202.146 46.4106C201.498 45.8533 200.971 45.1368 200.566 44.2611C200.161 43.3854 199.959 42.2708 199.959 40.9573C199.959 39.6437 200.202 38.5291 200.647 37.6136C201.093 36.698 201.66 35.9815 202.349 35.4641C203.037 34.9068 203.766 34.5087 204.576 34.2699C205.387 34.0311 206.156 33.9117 206.845 33.9117C207.533 33.9117 208.262 34.0311 209.032 34.2301C209.802 34.4291 210.45 34.8272 211.057 35.3845C211.665 35.9417 212.151 36.698 212.556 37.6932C212.961 38.6883 213.164 39.9223 213.164 41.4747V42.0718H204.05C204.171 43.1864 204.495 43.9825 205.062 44.4601C205.63 44.9378 206.359 45.1766 207.25 45.1766C208.06 45.1766 208.83 45.0174 209.559 44.699C210.288 44.3805 210.855 43.9825 211.341 43.5844L212.961 46.0126C211.381 47.2863 209.356 47.963 207.007 47.963ZM209.518 39.6039C209.316 37.733 208.424 36.7777 206.885 36.7777C206.237 36.7777 205.67 37.0165 205.144 37.4544C204.657 37.8922 204.333 38.6087 204.171 39.6039H209.518V39.6039Z" fill="#111D29"/>
<path d="M215.675 47.6446V34.1107H219.847V36.2602C220.05 35.9815 220.293 35.7427 220.576 35.4243C220.86 35.1456 221.224 34.867 221.629 34.668C222.034 34.4291 222.48 34.2301 222.966 34.0709C223.452 33.9117 224.019 33.832 224.627 33.832C225.194 33.832 225.761 33.9117 226.247 34.0709C226.733 34.2301 227.179 34.4689 227.503 34.7874C227.867 35.1058 228.151 35.5039 228.313 36.0214C228.515 36.499 228.596 37.0961 228.596 37.8126V47.6844H224.424V39.1262C224.424 38.5291 224.303 38.0514 224.06 37.733C223.817 37.4146 223.412 37.2553 222.804 37.2553C222.277 37.2553 221.751 37.3747 221.265 37.6534C220.779 37.8922 220.293 38.2505 219.847 38.6087V47.6844H215.675V47.6446Z" fill="#111D29"/>
<path d="M237.386 47.8436C236.374 47.8436 235.563 47.764 234.915 47.565C234.308 47.4058 233.822 47.1271 233.498 46.8087C233.174 46.4504 232.971 46.0524 232.85 45.5747C232.728 45.097 232.687 44.5398 232.687 43.8631V37.0961H230.379V34.1107H232.687V29.4932H236.819V34.1107H240.343V37.0961H236.819V42.9475C236.819 43.664 236.941 44.1815 237.224 44.4601C237.467 44.7388 237.994 44.8582 238.763 44.8582C239.006 44.8582 239.249 44.8582 239.533 44.8184C239.817 44.7786 240.019 44.7388 240.141 44.699V47.6048C240.06 47.6048 239.898 47.6446 239.695 47.6844C239.492 47.7242 239.249 47.7242 238.966 47.764C238.682 47.764 238.439 47.8038 238.156 47.8038C237.872 47.8038 237.589 47.8436 237.386 47.8436Z" fill="#111D29"/>
<path d="M257.396 47.8436C256.465 47.8436 255.654 47.6844 255.006 47.366C254.318 47.0475 253.751 46.6097 253.224 46.0524V47.6446H249.052V28.8563H253.224V36.1806C253.67 35.5437 254.237 35.0262 254.925 34.5485C255.614 34.0709 256.465 33.832 257.477 33.832C258.247 33.832 258.976 33.9913 259.624 34.2699C260.272 34.5485 260.839 35.0262 261.285 35.5835C261.73 36.1408 262.095 36.8971 262.378 37.7728C262.621 38.6485 262.783 39.6835 262.783 40.8378C262.783 41.9922 262.662 43.0271 262.378 43.9029C262.135 44.7786 261.771 45.4951 261.285 46.0922C260.799 46.6893 260.232 47.1271 259.584 47.4058C258.935 47.7242 258.206 47.8436 257.396 47.8436ZM255.979 44.8184C256.87 44.8184 257.518 44.4601 257.923 43.7835C258.328 43.1068 258.571 42.1514 258.571 40.9174C258.571 39.8029 258.368 38.8874 257.923 38.2107C257.518 37.534 256.829 37.2155 255.897 37.2155C255.371 37.2155 254.844 37.3349 254.399 37.6136C253.953 37.8922 253.548 38.2107 253.184 38.5291V43.5048C253.629 43.9427 254.075 44.2213 254.48 44.4601C254.885 44.699 255.411 44.8184 255.979 44.8184Z" fill="#111D29"/>
<path d="M267.239 52.8591C266.186 52.8591 265.376 52.8193 264.768 52.6999C264.161 52.5805 263.675 52.5009 263.31 52.3815L264.161 49.2368C264.363 49.2766 264.687 49.3562 265.133 49.4358C265.578 49.5155 266.145 49.5951 266.753 49.5951C267.199 49.5951 267.563 49.5155 267.847 49.3164C268.13 49.1572 268.333 48.8388 268.535 48.4009L268.819 47.7242L263.553 34.1107H267.847L270.885 42.9077H270.925L273.963 34.1107H278.014L272.221 49.0776C271.978 49.6747 271.735 50.1922 271.452 50.63C271.168 51.1077 270.844 51.4659 270.439 51.8242C270.034 52.1426 269.588 52.4213 269.102 52.5805C268.535 52.7397 267.928 52.8591 267.239 52.8591Z" fill="#111D29"/>
<path d="M292.677 48.0029C291.624 48.0029 290.692 47.8834 289.841 47.6446C288.991 47.4058 288.221 47.0873 287.573 46.6893C286.885 46.2912 286.317 45.8135 285.831 45.2165C285.345 44.6194 284.9 44.0223 284.535 43.3456L287.695 41.4747C288.221 42.5097 288.95 43.3058 289.841 43.8631C290.733 44.4203 291.745 44.699 292.839 44.699C293.811 44.699 294.621 44.5398 295.229 44.1815C295.836 43.8233 296.16 43.266 296.16 42.5495C296.16 41.833 295.836 41.2757 295.188 40.9174C294.54 40.5194 293.568 40.1611 292.312 39.8427C291.462 39.6039 290.611 39.365 289.801 39.1262C288.991 38.8874 288.221 38.5291 287.573 38.131C286.925 37.733 286.398 37.1757 285.953 36.5388C285.548 35.9019 285.345 35.1058 285.345 34.1107C285.345 33.235 285.507 32.4388 285.831 31.7621C286.155 31.0855 286.641 30.4884 287.249 30.0107C287.857 29.533 288.586 29.1748 289.436 28.8961C290.287 28.6573 291.219 28.5379 292.272 28.5379C293.244 28.5379 294.135 28.6573 294.905 28.8563C295.674 29.0554 296.403 29.334 297.011 29.6923C297.619 30.0505 298.186 30.4486 298.631 30.9262C299.077 31.4039 299.482 31.8816 299.846 32.399L296.93 34.5883C296.444 33.7922 295.755 33.1155 294.905 32.6379C294.054 32.1602 293.163 31.9214 292.231 31.9214C291.34 31.9214 290.652 32.0806 290.165 32.4388C289.679 32.7971 289.436 33.235 289.436 33.7922C289.436 34.5485 289.76 35.1058 290.449 35.4641C291.138 35.8223 292.11 36.1806 293.365 36.499C294.216 36.7378 295.067 36.9767 295.877 37.2553C296.687 37.534 297.457 37.8922 298.105 38.2903C298.753 38.7281 299.279 39.2456 299.684 39.8825C300.089 40.5194 300.292 41.3155 300.292 42.3106C300.292 43.0669 300.13 43.7834 299.846 44.4601C299.563 45.1368 299.077 45.7339 298.469 46.2912C297.862 46.8485 297.051 47.2465 296.079 47.565C295.107 47.8834 294.014 48.0029 292.677 48.0029Z" fill="#111D29"/>
<path d="M300.697 47.6446L307.461 28.7767H311.472L318.236 47.6446H313.983L312.565 43.465H306.044L304.586 47.6446H300.697ZM307.097 40.4796H311.593L309.406 34.0709H309.365L307.097 40.4796Z" fill="#111D29"/>
<path d="M320.14 47.6446V28.8563H327.107C328.119 28.8563 329.091 28.9359 330.023 29.0952C330.955 29.2544 331.805 29.5728 332.535 30.0107C333.264 30.4486 333.831 31.0854 334.276 31.8418C334.722 32.6379 334.924 33.633 334.924 34.867C334.924 36.1408 334.681 37.1757 334.236 37.932C333.79 38.7281 333.183 39.3252 332.413 39.8029C331.643 40.2407 330.833 40.5592 329.861 40.7184C328.929 40.8776 327.998 40.9573 327.026 40.9573H324.312V47.6446H320.14ZM324.312 37.7728H327.188C328.484 37.7728 329.416 37.534 329.942 37.0563C330.469 36.5786 330.752 35.9019 330.752 34.9864C330.752 34.1107 330.469 33.434 329.942 32.9563C329.416 32.4786 328.484 32.2398 327.147 32.2398H324.271V37.7728H324.312Z" fill="#111D29"/>
</g>
<defs>
<linearGradient id="paint0_linear" x1="41.7467" y1="31.8172" x2="24.1335" y2="19.015" gradientUnits="userSpaceOnUse">
<stop stop-color="#1E5FBB"/>
<stop offset="0.229" stop-color="#1C65BF"/>
<stop offset="0.5799" stop-color="#1775C8"/>
<stop offset="0.9376" stop-color="#1380CF"/>
</linearGradient>
</defs>
</svg>
