<svg width="1126" height="274" viewBox="0 0 1126 274" fill="none" xmlns="http://www.w3.org/2000/svg">
<path d="M904.49 1.41549C904.49 0.627485 903.847 0 903.072 0C902.283 0 901.655 0.627485 901.655 1.41549C901.655 2.20349 902.283 2.83098 903.072 2.83098C903.847 2.83098 904.49 2.20349 904.49 1.41549Z" fill="#0FAAFF"/>
<path d="M914.486 2.83098C915.261 2.83098 915.904 2.20349 915.904 1.41549C915.904 0.627485 915.276 0 914.486 0C913.697 0 913.069 0.627485 913.069 1.41549C913.069 2.20349 913.712 2.83098 914.486 2.83098Z" fill="#0FAAFF"/>
<path d="M903.072 11.4116C902.283 11.4116 901.655 12.0537 901.655 12.8271C901.655 13.6151 902.298 14.2426 903.072 14.2426C903.847 14.2426 904.49 13.6151 904.49 12.8271C904.49 12.0391 903.847 11.4116 903.072 11.4116Z" fill="#0FAAFF"/>
<path d="M914.486 11.4116C913.697 11.4116 913.069 12.0537 913.069 12.8271C913.069 13.6151 913.712 14.2426 914.486 14.2426C915.261 14.2426 915.904 13.6151 915.904 12.8271C915.904 12.0391 915.276 11.4116 914.486 11.4116Z" fill="#0FAAFF"/>
<path d="M925.915 11.4116C925.126 11.4116 924.497 12.0537 924.497 12.8271C924.497 13.6151 925.14 14.2426 925.915 14.2426C926.689 14.2426 927.332 13.6151 927.332 12.8271C927.332 12.0391 926.704 11.4116 925.915 11.4116Z" fill="#0FAAFF"/>
<path d="M847.348 1.41549C847.348 0.627485 846.705 0 845.931 0C845.142 0 844.513 0.627485 844.513 1.41549C844.513 2.20349 845.142 2.83098 845.931 2.83098C846.72 2.83098 847.348 2.20349 847.348 1.41549Z" fill="#0FAAFF"/>
<path d="M858.777 1.41549C858.777 0.627485 858.134 0 857.359 0C856.57 0 855.941 0.627485 855.941 1.41549C855.941 2.20349 856.57 2.83098 857.359 2.83098C858.148 2.83098 858.777 2.20349 858.777 1.41549Z" fill="#0FAAFF"/>
<path d="M870.205 1.41549C870.205 0.627485 869.562 0 868.788 0C867.998 0 867.37 0.627485 867.37 1.41549C867.37 2.20349 867.998 2.83098 868.788 2.83098C869.577 2.83098 870.205 2.20349 870.205 1.41549Z" fill="#0FAAFF"/>
<path d="M881.633 1.41549C881.633 0.627485 880.99 0 880.216 0C879.427 0 878.798 0.627485 878.798 1.41549C878.798 2.20349 879.427 2.83098 880.216 2.83098C880.99 2.83098 881.633 2.20349 881.633 1.41549Z" fill="#0FAAFF"/>
<path d="M893.062 1.41549C893.062 0.627485 892.419 0 891.644 0C890.855 0 890.227 0.627485 890.227 1.41549C890.227 2.20349 890.855 2.83098 891.644 2.83098C892.419 2.83098 893.062 2.20349 893.062 1.41549Z" fill="#0FAAFF"/>
<path d="M845.931 11.4116C845.142 11.4116 844.513 12.0537 844.513 12.8271C844.513 13.6151 845.156 14.2426 845.931 14.2426C846.72 14.2426 847.348 13.6151 847.348 12.8271C847.348 12.0391 846.72 11.4116 845.931 11.4116Z" fill="#0FAAFF"/>
<path d="M857.359 11.4116C856.57 11.4116 855.941 12.0537 855.941 12.8271C855.941 13.6151 856.57 14.2426 857.359 14.2426C858.148 14.2426 858.777 13.6151 858.777 12.8271C858.777 12.0391 858.148 11.4116 857.359 11.4116Z" fill="#0FAAFF"/>
<path d="M868.788 11.4116C867.998 11.4116 867.37 12.0537 867.37 12.8271C867.37 13.6151 868.013 14.2426 868.788 14.2426C869.577 14.2426 870.205 13.6151 870.205 12.8271C870.205 12.0391 869.577 11.4116 868.788 11.4116Z" fill="#0FAAFF"/>
<path d="M880.216 11.4116C879.427 11.4116 878.798 12.0537 878.798 12.8271C878.798 13.6151 879.441 14.2426 880.216 14.2426C881.005 14.2426 881.633 13.6151 881.633 12.8271C881.633 12.0391 880.99 11.4116 880.216 11.4116Z" fill="#0FAAFF"/>
<path d="M891.644 11.4116C890.855 11.4116 890.227 12.0537 890.227 12.8271C890.227 13.6151 890.87 14.2426 891.644 14.2426C892.433 14.2426 893.062 13.6151 893.062 12.8271C893.062 12.0391 892.419 11.4116 891.644 11.4116Z" fill="#0FAAFF"/>
<path d="M823.089 0C822.3 0 821.671 0.627485 821.671 1.41549C821.671 2.20349 822.3 2.83098 823.089 2.83098C823.878 2.83098 824.506 2.20349 824.506 1.41549C824.506 0.627485 823.863 0 823.089 0Z" fill="#0FAAFF"/>
<path d="M835.935 1.41549C835.935 0.627485 835.292 0 834.517 0C833.728 0 833.1 0.627485 833.1 1.41549C833.1 2.20349 833.728 2.83098 834.517 2.83098C835.292 2.83098 835.935 2.20349 835.935 1.41549Z" fill="#0FAAFF"/>
<path d="M834.503 14.2426C835.292 14.2426 835.92 13.6151 835.92 12.8271C835.92 12.0537 835.292 11.4116 834.503 11.4116C833.713 11.4116 833.085 12.0391 833.085 12.8271C833.085 13.6005 833.728 14.2426 834.503 14.2426Z" fill="#0FAAFF"/>
<path d="M307.44 275.933C307.235 196.403 242.611 131.99 162.92 131.99C83.2282 131.99 18.5894 196.403 18.3994 275.933H307.44Z" fill="#C5EAFF"/>
<path d="M596.495 275.933C596.29 196.403 531.666 131.99 451.975 131.99C372.283 131.99 307.645 196.403 307.455 275.933H596.495Z" fill="#C5EAFF"/>
<path d="M885.535 275.933C885.33 196.403 820.706 131.99 741.015 131.99C661.323 131.99 596.685 196.403 596.495 275.933H885.535Z" fill="#C5EAFF"/>
<path d="M1174.59 275.933C1174.39 196.403 1109.76 131.99 1030.07 131.99C950.379 131.99 885.74 196.403 885.55 275.933H1174.59Z" fill="#C5EAFF"/>
<path d="M544.205 312.488V149.575L479.23 214.454V312.488H544.205Z" fill="#0FAAFF"/>
<path d="M890.884 275.933V107.329L823.644 174.47V275.933H890.884Z" stroke="#0057D2" stroke-width="2" stroke-miterlimit="10" stroke-linecap="round" stroke-linejoin="round"/>
<path d="M341.067 275.933V57.8015L254.068 144.672V275.933H341.067Z" stroke="#0057D2" stroke-width="2" stroke-miterlimit="10" stroke-linecap="round" stroke-linejoin="round"/>
<path d="M603.788 124.519L597.197 131.101H588.355L594.946 124.519L588.355 117.938H596.481C596.685 117.938 596.904 117.982 597.094 118.055C597.328 118.142 597.533 118.274 597.708 118.449L603.788 124.519Z" fill="#0057D2"/>
<path d="M619.22 124.519L612.629 131.101H603.788L610.379 124.519L603.788 117.938H611.913C612.118 117.938 612.337 117.982 612.527 118.055C612.761 118.142 612.965 118.274 613.141 118.449L619.22 124.519Z" fill="#0057D2"/>
<path d="M634.653 124.519L628.062 131.101H619.22L625.811 124.519L619.22 117.938H627.346C627.55 117.938 627.77 117.982 627.96 118.055C628.193 118.142 628.398 118.274 628.573 118.449L634.653 124.519Z" fill="#0057D2"/>
<path d="M650.085 124.519L643.494 131.101H634.653L641.244 124.519L634.653 117.938H642.778C642.983 117.938 643.187 117.982 643.392 118.055C643.626 118.142 643.83 118.274 644.006 118.449L650.085 124.519Z" fill="#0057D2"/>
<path d="M31.6836 232.534L25.0926 239.116H16.251L22.842 232.534L16.251 225.953H24.3765C24.5811 225.953 24.7857 225.997 24.9903 226.07C25.2241 226.157 25.4287 226.289 25.6041 226.464L31.6836 232.534Z" fill="#0057D2"/>
<path d="M47.1162 232.534L40.5252 239.116H31.6836L38.2746 232.534L31.6836 225.953H39.8091C40.0137 225.953 40.2183 225.997 40.4229 226.07C40.6567 226.157 40.8613 226.289 41.0367 226.464L47.1162 232.534Z" fill="#0057D2"/>
<path d="M62.5635 232.534L55.9725 239.116H47.1309L53.7219 232.534L47.1309 225.953H55.2564C55.461 225.953 55.6656 225.997 55.8702 226.07C56.104 226.157 56.3086 226.289 56.484 226.464L62.5635 232.534Z" fill="#0057D2"/>
<path d="M77.9961 232.534L71.4051 239.116H62.5488L69.1399 232.534L62.5488 225.953H70.6743C70.8789 225.953 71.0835 225.997 71.2881 226.07C71.522 226.157 71.7266 226.289 71.9019 226.464L77.9961 232.534Z" fill="#0057D2"/>
<path d="M393.299 82.3757L386.708 88.957H377.866L384.457 82.3757L377.866 75.7944H385.992C386.196 75.7944 386.416 75.8382 386.606 75.9112C386.839 75.9987 387.044 76.1301 387.219 76.3052L393.299 82.3757Z" fill="#0FAAFF"/>
<path d="M408.731 82.3757L402.14 88.957H393.299L399.89 82.3757L393.299 75.7944H401.424C401.629 75.7944 401.848 75.8382 402.038 75.9112C402.272 75.9987 402.477 76.1301 402.652 76.3052L408.731 82.3757Z" fill="#0FAAFF"/>
<path d="M424.164 82.3757L417.573 88.957H408.731L415.322 82.3757L408.731 75.7944H416.856C417.061 75.7944 417.28 75.8382 417.47 75.9112C417.704 75.9987 417.909 76.1301 418.084 76.3052L424.164 82.3757Z" fill="#0FAAFF"/>
<path d="M439.596 82.3757L433.005 88.957H424.164L430.755 82.3757L424.164 75.7944H432.289C432.494 75.7944 432.713 75.8382 432.903 75.9112C433.137 75.9987 433.342 76.1301 433.517 76.3052L439.596 82.3757Z" fill="#0FAAFF"/>
<path d="M960.2 48.4623C960.974 48.4623 961.617 47.8348 961.617 47.0468C961.617 46.2734 960.974 45.6313 960.2 45.6313C959.41 45.6313 958.782 46.2588 958.782 47.0468C958.782 47.8348 959.41 48.4623 960.2 48.4623Z" fill="#0FAAFF"/>
<path d="M960.2 59.8737C960.974 59.8737 961.617 59.2462 961.617 58.4582C961.617 57.6848 960.974 57.0427 960.2 57.0427C959.41 57.0427 958.782 57.6702 958.782 58.4582C958.782 59.2462 959.41 59.8737 960.2 59.8737Z" fill="#0FAAFF"/>
<path d="M973.046 58.4582C973.046 57.6702 972.403 57.0427 971.628 57.0427C970.839 57.0427 970.21 57.6702 970.21 58.4582C970.21 59.2462 970.839 59.8737 971.628 59.8737C972.403 59.8737 973.046 59.2462 973.046 58.4582Z" fill="#0FAAFF"/>
<path d="M958.782 69.8698C958.782 70.6578 959.41 71.2853 960.2 71.2853C960.989 71.2853 961.617 70.6578 961.617 69.8698C961.617 69.0818 960.989 68.4543 960.2 68.4543C959.41 68.4543 958.782 69.0818 958.782 69.8698Z" fill="#0FAAFF"/>
<path d="M903.072 22.823C902.283 22.823 901.655 23.4651 901.655 24.2385C901.655 25.0265 902.298 25.654 903.072 25.654C903.847 25.654 904.49 25.0265 904.49 24.2385C904.49 23.4505 903.847 22.823 903.072 22.823Z" fill="#0FAAFF"/>
<path d="M903.072 34.2344C902.283 34.2344 901.655 34.8765 901.655 35.6499C901.655 36.4379 902.298 37.0654 903.072 37.0654C903.847 37.0654 904.49 36.4379 904.49 35.6499C904.49 34.8619 903.847 34.2344 903.072 34.2344Z" fill="#0FAAFF"/>
<path d="M903.072 45.6313C902.283 45.6313 901.655 46.2734 901.655 47.0468C901.655 47.8348 902.298 48.4623 903.072 48.4623C903.847 48.4623 904.49 47.8348 904.49 47.0468C904.49 46.2734 903.847 45.6313 903.072 45.6313Z" fill="#0FAAFF"/>
<path d="M903.072 57.0427C902.283 57.0427 901.655 57.6848 901.655 58.4582C901.655 59.2462 902.298 59.8737 903.072 59.8737C903.847 59.8737 904.49 59.2462 904.49 58.4582C904.49 57.6848 903.847 57.0427 903.072 57.0427Z" fill="#0FAAFF"/>
<path d="M914.486 22.823C913.697 22.823 913.069 23.4651 913.069 24.2385C913.069 25.0265 913.712 25.654 914.486 25.654C915.261 25.654 915.904 25.0265 915.904 24.2385C915.904 23.4505 915.276 22.823 914.486 22.823Z" fill="#0FAAFF"/>
<path d="M914.486 34.2344C913.697 34.2344 913.069 34.8765 913.069 35.6499C913.069 36.4379 913.712 37.0654 914.486 37.0654C915.261 37.0654 915.904 36.4379 915.904 35.6499C915.904 34.8619 915.276 34.2344 914.486 34.2344Z" fill="#0FAAFF"/>
<path d="M914.486 45.6313C913.697 45.6313 913.069 46.2734 913.069 47.0468C913.069 47.8348 913.712 48.4623 914.486 48.4623C915.261 48.4623 915.904 47.8348 915.904 47.0468C915.904 46.2734 915.276 45.6313 914.486 45.6313Z" fill="#0FAAFF"/>
<path d="M914.486 57.0427C913.697 57.0427 913.069 57.6848 913.069 58.4582C913.069 59.2462 913.712 59.8737 914.486 59.8737C915.261 59.8737 915.904 59.2462 915.904 58.4582C915.904 57.6848 915.276 57.0427 914.486 57.0427Z" fill="#0FAAFF"/>
<path d="M925.915 22.823C925.126 22.823 924.497 23.4651 924.497 24.2385C924.497 25.0265 925.14 25.654 925.915 25.654C926.689 25.654 927.332 25.0265 927.332 24.2385C927.332 23.4505 926.704 22.823 925.915 22.823Z" fill="#0FAAFF"/>
<path d="M925.915 34.2344C925.126 34.2344 924.497 34.8765 924.497 35.6499C924.497 36.4379 925.14 37.0654 925.915 37.0654C926.689 37.0654 927.332 36.4379 927.332 35.6499C927.332 34.8619 926.704 34.2344 925.915 34.2344Z" fill="#0FAAFF"/>
<path d="M925.915 45.6313C925.126 45.6313 924.497 46.2734 924.497 47.0468C924.497 47.8348 925.14 48.4623 925.915 48.4623C926.689 48.4623 927.332 47.8348 927.332 47.0468C927.332 46.2734 926.704 45.6313 925.915 45.6313Z" fill="#0FAAFF"/>
<path d="M925.915 57.0427C925.126 57.0427 924.497 57.6848 924.497 58.4582C924.497 59.2462 925.14 59.8737 925.915 59.8737C926.689 59.8737 927.332 59.2462 927.332 58.4582C927.332 57.6848 926.704 57.0427 925.915 57.0427Z" fill="#0FAAFF"/>
<path d="M937.343 25.654C938.117 25.654 938.76 25.0265 938.76 24.2385C938.76 23.4651 938.117 22.823 937.343 22.823C936.554 22.823 935.925 23.4505 935.925 24.2385C935.925 25.0119 936.554 25.654 937.343 25.654Z" fill="#0FAAFF"/>
<path d="M937.343 37.0654C938.117 37.0654 938.76 36.4379 938.76 35.6499C938.76 34.8765 938.117 34.2344 937.343 34.2344C936.554 34.2344 935.925 34.8619 935.925 35.6499C935.925 36.4233 936.554 37.0654 937.343 37.0654Z" fill="#0FAAFF"/>
<path d="M937.343 48.4623C938.117 48.4623 938.76 47.8348 938.76 47.0468C938.76 46.2734 938.117 45.6313 937.343 45.6313C936.554 45.6313 935.925 46.2588 935.925 47.0468C935.925 47.8348 936.554 48.4623 937.343 48.4623Z" fill="#0FAAFF"/>
<path d="M937.343 59.8737C938.117 59.8737 938.76 59.2462 938.76 58.4582C938.76 57.6848 938.117 57.0427 937.343 57.0427C936.554 57.0427 935.925 57.6702 935.925 58.4582C935.925 59.2462 936.554 59.8737 937.343 59.8737Z" fill="#0FAAFF"/>
<path d="M948.771 37.0654C949.546 37.0654 950.189 36.4379 950.189 35.6499C950.189 34.8765 949.546 34.2344 948.771 34.2344C947.982 34.2344 947.354 34.8619 947.354 35.6499C947.354 36.4233 947.982 37.0654 948.771 37.0654Z" fill="#0FAAFF"/>
<path d="M948.771 48.4623C949.546 48.4623 950.189 47.8348 950.189 47.0468C950.189 46.2734 949.546 45.6313 948.771 45.6313C947.982 45.6313 947.354 46.2588 947.354 47.0468C947.354 47.8348 947.982 48.4623 948.771 48.4623Z" fill="#0FAAFF"/>
<path d="M948.771 59.8737C949.546 59.8737 950.189 59.2462 950.189 58.4582C950.189 57.6848 949.546 57.0427 948.771 57.0427C947.982 57.0427 947.354 57.6702 947.354 58.4582C947.354 59.2462 947.982 59.8737 948.771 59.8737Z" fill="#0FAAFF"/>
<path d="M903.072 68.4543C902.283 68.4543 901.655 69.0964 901.655 69.8698C901.655 70.6578 902.298 71.2853 903.072 71.2853C903.847 71.2853 904.49 70.6578 904.49 69.8698C904.49 69.0964 903.847 68.4543 903.072 68.4543Z" fill="#0FAAFF"/>
<path d="M903.072 79.8655C902.283 79.8655 901.655 80.493 901.655 81.281C901.655 82.0544 902.298 82.6965 903.072 82.6965C903.847 82.6965 904.49 82.069 904.49 81.281C904.49 80.493 903.847 79.8655 903.072 79.8655Z" fill="#0FAAFF"/>
<path d="M903.072 91.2773C902.283 91.2773 901.655 91.9048 901.655 92.6928C901.655 93.4662 902.298 94.1083 903.072 94.1083C903.847 94.1083 904.49 93.4808 904.49 92.6928C904.49 91.9048 903.847 91.2773 903.072 91.2773Z" fill="#0FAAFF"/>
<path d="M903.072 102.688C902.283 102.688 901.655 103.316 901.655 104.104C901.655 104.877 902.298 105.519 903.072 105.519C903.847 105.519 904.49 104.892 904.49 104.104C904.49 103.316 903.847 102.688 903.072 102.688Z" fill="#0FAAFF"/>
<path d="M903.072 114.085C902.283 114.085 901.655 114.713 901.655 115.501C901.655 116.274 902.298 116.916 903.072 116.916C903.847 116.916 904.49 116.289 904.49 115.501C904.49 114.728 903.847 114.085 903.072 114.085Z" fill="#0FAAFF"/>
<path d="M914.486 68.4543C913.697 68.4543 913.069 69.0964 913.069 69.8698C913.069 70.6578 913.712 71.2853 914.486 71.2853C915.261 71.2853 915.904 70.6578 915.904 69.8698C915.904 69.0964 915.276 68.4543 914.486 68.4543Z" fill="#0FAAFF"/>
<path d="M914.486 79.8655C913.697 79.8655 913.069 80.493 913.069 81.281C913.069 82.0544 913.712 82.6965 914.486 82.6965C915.261 82.6965 915.904 82.069 915.904 81.281C915.904 80.493 915.276 79.8655 914.486 79.8655Z" fill="#0FAAFF"/>
<path d="M914.486 91.2773C913.697 91.2773 913.069 91.9048 913.069 92.6928C913.069 93.4662 913.712 94.1083 914.486 94.1083C915.261 94.1083 915.904 93.4808 915.904 92.6928C915.904 91.9048 915.276 91.2773 914.486 91.2773Z" fill="#0FAAFF"/>
<path d="M914.486 102.688C913.697 102.688 913.069 103.316 913.069 104.104C913.069 104.877 913.712 105.519 914.486 105.519C915.261 105.519 915.904 104.892 915.904 104.104C915.904 103.316 915.276 102.688 914.486 102.688Z" fill="#0FAAFF"/>
<path d="M914.486 114.085C913.697 114.085 913.069 114.713 913.069 115.501C913.069 116.274 913.712 116.916 914.486 116.916C915.261 116.916 915.904 116.289 915.904 115.501C915.904 114.728 915.276 114.085 914.486 114.085Z" fill="#0FAAFF"/>
<path d="M925.915 68.4543C925.126 68.4543 924.497 69.0964 924.497 69.8698C924.497 70.6578 925.14 71.2853 925.915 71.2853C926.689 71.2853 927.332 70.6578 927.332 69.8698C927.332 69.0964 926.704 68.4543 925.915 68.4543Z" fill="#0FAAFF"/>
<path d="M925.915 79.8655C925.126 79.8655 924.497 80.493 924.497 81.281C924.497 82.0544 925.14 82.6965 925.915 82.6965C926.689 82.6965 927.332 82.069 927.332 81.281C927.332 80.493 926.704 79.8655 925.915 79.8655Z" fill="#0FAAFF"/>
<path d="M925.915 91.2773C925.126 91.2773 924.497 91.9048 924.497 92.6928C924.497 93.4662 925.14 94.1083 925.915 94.1083C926.689 94.1083 927.332 93.4808 927.332 92.6928C927.332 91.9048 926.704 91.2773 925.915 91.2773Z" fill="#0FAAFF"/>
<path d="M925.915 102.688C925.126 102.688 924.497 103.316 924.497 104.104C924.497 104.877 925.14 105.519 925.915 105.519C926.689 105.519 927.332 104.892 927.332 104.104C927.332 103.316 926.704 102.688 925.915 102.688Z" fill="#0FAAFF"/>
<path d="M937.343 68.4543C936.554 68.4543 935.925 69.0964 935.925 69.8698C935.925 70.6578 936.568 71.2853 937.343 71.2853C938.117 71.2853 938.76 70.6578 938.76 69.8698C938.76 69.0964 938.132 68.4543 937.343 68.4543Z" fill="#0FAAFF"/>
<path d="M937.343 79.8655C936.554 79.8655 935.925 80.493 935.925 81.281C935.925 82.0544 936.568 82.6965 937.343 82.6965C938.117 82.6965 938.76 82.069 938.76 81.281C938.76 80.493 938.132 79.8655 937.343 79.8655Z" fill="#0FAAFF"/>
<path d="M937.343 91.2773C936.554 91.2773 935.925 91.9048 935.925 92.6928C935.925 93.4662 936.568 94.1083 937.343 94.1083C938.117 94.1083 938.76 93.4808 938.76 92.6928C938.76 91.9048 938.132 91.2773 937.343 91.2773Z" fill="#0FAAFF"/>
<path d="M948.771 68.4543C947.982 68.4543 947.354 69.0964 947.354 69.8698C947.354 70.6578 947.997 71.2853 948.771 71.2853C949.546 71.2853 950.189 70.6578 950.189 69.8698C950.189 69.0964 949.546 68.4543 948.771 68.4543Z" fill="#0FAAFF"/>
<path d="M948.771 79.8655C947.982 79.8655 947.354 80.493 947.354 81.281C947.354 82.0544 947.997 82.6965 948.771 82.6965C949.546 82.6965 950.189 82.069 950.189 81.281C950.189 80.493 949.546 79.8655 948.771 79.8655Z" fill="#0FAAFF"/>
<path d="M845.931 22.823C845.142 22.823 844.513 23.4651 844.513 24.2385C844.513 25.0265 845.156 25.654 845.931 25.654C846.72 25.654 847.348 25.0265 847.348 24.2385C847.348 23.4505 846.72 22.823 845.931 22.823Z" fill="#0FAAFF"/>
<path d="M857.359 22.823C856.57 22.823 855.941 23.4651 855.941 24.2385C855.941 25.0265 856.57 25.654 857.359 25.654C858.148 25.654 858.777 25.0265 858.777 24.2385C858.777 23.4505 858.148 22.823 857.359 22.823Z" fill="#0FAAFF"/>
<path d="M857.359 34.2344C856.57 34.2344 855.941 34.8765 855.941 35.6499C855.941 36.4379 856.57 37.0654 857.359 37.0654C858.148 37.0654 858.777 36.4379 858.777 35.6499C858.777 34.8619 858.148 34.2344 857.359 34.2344Z" fill="#0FAAFF"/>
<path d="M868.787 22.823C867.998 22.823 867.37 23.4651 867.37 24.2385C867.37 25.0265 868.013 25.654 868.787 25.654C869.576 25.654 870.205 25.0265 870.205 24.2385C870.205 23.4505 869.576 22.823 868.787 22.823Z" fill="#0FAAFF"/>
<path d="M868.787 34.2344C867.998 34.2344 867.37 34.8765 867.37 35.6499C867.37 36.4379 868.013 37.0654 868.787 37.0654C869.576 37.0654 870.205 36.4379 870.205 35.6499C870.205 34.8619 869.576 34.2344 868.787 34.2344Z" fill="#0FAAFF"/>
<path d="M868.787 45.6313C867.998 45.6313 867.37 46.2734 867.37 47.0468C867.37 47.8348 868.013 48.4623 868.787 48.4623C869.576 48.4623 870.205 47.8348 870.205 47.0468C870.205 46.2734 869.576 45.6313 868.787 45.6313Z" fill="#0FAAFF"/>
<path d="M880.216 22.823C879.427 22.823 878.798 23.4651 878.798 24.2385C878.798 25.0265 879.441 25.654 880.216 25.654C881.005 25.654 881.633 25.0265 881.633 24.2385C881.633 23.4505 880.99 22.823 880.216 22.823Z" fill="#0FAAFF"/>
<path d="M880.216 34.2344C879.427 34.2344 878.798 34.8765 878.798 35.6499C878.798 36.4379 879.441 37.0654 880.216 37.0654C881.005 37.0654 881.633 36.4379 881.633 35.6499C881.633 34.8619 880.99 34.2344 880.216 34.2344Z" fill="#0FAAFF"/>
<path d="M880.216 45.6313C879.427 45.6313 878.798 46.2734 878.798 47.0468C878.798 47.8348 879.441 48.4623 880.216 48.4623C881.005 48.4623 881.633 47.8348 881.633 47.0468C881.633 46.2734 880.99 45.6313 880.216 45.6313Z" fill="#0FAAFF"/>
<path d="M880.216 57.0427C879.427 57.0427 878.798 57.6848 878.798 58.4582C878.798 59.2462 879.441 59.8737 880.216 59.8737C881.005 59.8737 881.633 59.2462 881.633 58.4582C881.633 57.6848 880.99 57.0427 880.216 57.0427Z" fill="#0FAAFF"/>
<path d="M891.644 22.823C890.855 22.823 890.227 23.4651 890.227 24.2385C890.227 25.0265 890.87 25.654 891.644 25.654C892.433 25.654 893.062 25.0265 893.062 24.2385C893.062 23.4505 892.419 22.823 891.644 22.823Z" fill="#0FAAFF"/>
<path d="M891.644 34.2344C890.855 34.2344 890.227 34.8765 890.227 35.6499C890.227 36.4379 890.87 37.0654 891.644 37.0654C892.433 37.0654 893.062 36.4379 893.062 35.6499C893.062 34.8619 892.419 34.2344 891.644 34.2344Z" fill="#0FAAFF"/>
<path d="M891.644 45.6313C890.855 45.6313 890.227 46.2734 890.227 47.0468C890.227 47.8348 890.87 48.4623 891.644 48.4623C892.433 48.4623 893.062 47.8348 893.062 47.0468C893.062 46.2734 892.419 45.6313 891.644 45.6313Z" fill="#0FAAFF"/>
<path d="M891.644 57.0427C890.855 57.0427 890.227 57.6848 890.227 58.4582C890.227 59.2462 890.87 59.8737 891.644 59.8737C892.433 59.8737 893.062 59.2462 893.062 58.4582C893.062 57.6848 892.419 57.0427 891.644 57.0427Z" fill="#0FAAFF"/>
<path d="M845.931 91.2773C845.142 91.2773 844.513 91.9048 844.513 92.6928C844.513 93.4662 845.156 94.1083 845.931 94.1083C846.72 94.1083 847.348 93.4808 847.348 92.6928C847.348 91.9048 846.72 91.2773 845.931 91.2773Z" fill="#0FAAFF"/>
<path d="M845.931 102.688C845.142 102.688 844.513 103.316 844.513 104.104C844.513 104.877 845.156 105.519 845.931 105.519C846.72 105.519 847.348 104.892 847.348 104.104C847.348 103.316 846.72 102.688 845.931 102.688Z" fill="#0FAAFF"/>
<path d="M845.931 114.085C845.142 114.085 844.513 114.713 844.513 115.501C844.513 116.274 845.156 116.916 845.931 116.916C846.72 116.916 847.348 116.289 847.348 115.501C847.348 114.728 846.72 114.085 845.931 114.085Z" fill="#0FAAFF"/>
<path d="M857.359 79.8655C856.57 79.8655 855.941 80.493 855.941 81.281C855.941 82.0544 856.57 82.6965 857.359 82.6965C858.148 82.6965 858.777 82.069 858.777 81.281C858.777 80.493 858.148 79.8655 857.359 79.8655Z" fill="#0FAAFF"/>
<path d="M857.359 91.2773C856.57 91.2773 855.941 91.9048 855.941 92.6928C855.941 93.4662 856.57 94.1083 857.359 94.1083C858.148 94.1083 858.777 93.4808 858.777 92.6928C858.777 91.9048 858.148 91.2773 857.359 91.2773Z" fill="#0FAAFF"/>
<path d="M857.359 102.688C856.57 102.688 855.941 103.316 855.941 104.104C855.941 104.877 856.57 105.519 857.359 105.519C858.148 105.519 858.777 104.892 858.777 104.104C858.777 103.316 858.148 102.688 857.359 102.688Z" fill="#0FAAFF"/>
<path d="M857.359 114.085C856.57 114.085 855.941 114.713 855.941 115.501C855.941 116.274 856.57 116.916 857.359 116.916C858.148 116.916 858.777 116.289 858.777 115.501C858.777 114.728 858.148 114.085 857.359 114.085Z" fill="#0FAAFF"/>
<path d="M868.787 68.4543C867.998 68.4543 867.37 69.0964 867.37 69.8698C867.37 70.6578 868.013 71.2853 868.787 71.2853C869.576 71.2853 870.205 70.6578 870.205 69.8698C870.205 69.0964 869.576 68.4543 868.787 68.4543Z" fill="#0FAAFF"/>
<path d="M868.787 79.8655C867.998 79.8655 867.37 80.493 867.37 81.281C867.37 82.0544 868.013 82.6965 868.787 82.6965C869.576 82.6965 870.205 82.069 870.205 81.281C870.205 80.493 869.576 79.8655 868.787 79.8655Z" fill="#0FAAFF"/>
<path d="M868.787 91.2773C867.998 91.2773 867.37 91.9048 867.37 92.6928C867.37 93.4662 868.013 94.1083 868.787 94.1083C869.576 94.1083 870.205 93.4808 870.205 92.6928C870.205 91.9048 869.576 91.2773 868.787 91.2773Z" fill="#0FAAFF"/>
<path d="M868.787 102.688C867.998 102.688 867.37 103.316 867.37 104.104C867.37 104.877 868.013 105.519 868.787 105.519C869.576 105.519 870.205 104.892 870.205 104.104C870.205 103.316 869.576 102.688 868.787 102.688Z" fill="#0FAAFF"/>
<path d="M868.787 114.085C867.998 114.085 867.37 114.713 867.37 115.501C867.37 116.274 868.013 116.916 868.787 116.916C869.576 116.916 870.205 116.289 870.205 115.501C870.205 114.728 869.576 114.085 868.787 114.085Z" fill="#0FAAFF"/>
<path d="M880.216 68.4543C879.427 68.4543 878.798 69.0964 878.798 69.8698C878.798 70.6578 879.441 71.2853 880.216 71.2853C881.005 71.2853 881.633 70.6578 881.633 69.8698C881.633 69.0964 880.99 68.4543 880.216 68.4543Z" fill="#0FAAFF"/>
<path d="M880.216 79.8655C879.427 79.8655 878.798 80.493 878.798 81.281C878.798 82.0544 879.441 82.6965 880.216 82.6965C881.005 82.6965 881.633 82.069 881.633 81.281C881.633 80.493 880.99 79.8655 880.216 79.8655Z" fill="#0FAAFF"/>
<path d="M880.216 91.2773C879.427 91.2773 878.798 91.9048 878.798 92.6928C878.798 93.4662 879.441 94.1083 880.216 94.1083C881.005 94.1083 881.633 93.4808 881.633 92.6928C881.633 91.9048 880.99 91.2773 880.216 91.2773Z" fill="#0FAAFF"/>
<path d="M880.216 102.688C879.427 102.688 878.798 103.316 878.798 104.104C878.798 104.877 879.441 105.519 880.216 105.519C881.005 105.519 881.633 104.892 881.633 104.104C881.633 103.316 880.99 102.688 880.216 102.688Z" fill="#0FAAFF"/>
<path d="M880.216 114.085C879.427 114.085 878.798 114.713 878.798 115.501C878.798 116.274 879.441 116.916 880.216 116.916C881.005 116.916 881.633 116.289 881.633 115.501C881.633 114.728 880.99 114.085 880.216 114.085Z" fill="#0FAAFF"/>
<path d="M891.644 68.4543C890.855 68.4543 890.227 69.0964 890.227 69.8698C890.227 70.6578 890.87 71.2853 891.644 71.2853C892.433 71.2853 893.062 70.6578 893.062 69.8698C893.062 69.0964 892.419 68.4543 891.644 68.4543Z" fill="#0FAAFF"/>
<path d="M891.644 79.8655C890.855 79.8655 890.227 80.493 890.227 81.281C890.227 82.0544 890.87 82.6965 891.644 82.6965C892.433 82.6965 893.062 82.069 893.062 81.281C893.062 80.493 892.419 79.8655 891.644 79.8655Z" fill="#0FAAFF"/>
<path d="M891.644 91.2773C890.855 91.2773 890.227 91.9048 890.227 92.6928C890.227 93.4662 890.87 94.1083 891.644 94.1083C892.433 94.1083 893.062 93.4808 893.062 92.6928C893.062 91.9048 892.419 91.2773 891.644 91.2773Z" fill="#0FAAFF"/>
<path d="M891.644 102.688C890.855 102.688 890.227 103.316 890.227 104.104C890.227 104.877 890.87 105.519 891.644 105.519C892.433 105.519 893.062 104.892 893.062 104.104C893.062 103.316 892.419 102.688 891.644 102.688Z" fill="#0FAAFF"/>
<path d="M891.644 114.085C890.855 114.085 890.227 114.713 890.227 115.501C890.227 116.274 890.87 116.916 891.644 116.916C892.433 116.916 893.062 116.289 893.062 115.501C893.062 114.728 892.419 114.085 891.644 114.085Z" fill="#0FAAFF"/>
<path d="M821.671 115.501C821.671 116.289 822.314 116.916 823.089 116.916C823.878 116.916 824.506 116.289 824.506 115.501C824.506 114.713 823.878 114.085 823.089 114.085C822.3 114.085 821.671 114.728 821.671 115.501Z" fill="#0FAAFF"/>
<path d="M834.503 102.688C833.713 102.688 833.085 103.316 833.085 104.104C833.085 104.877 833.713 105.519 834.503 105.519C835.292 105.519 835.92 104.892 835.92 104.104C835.935 103.316 835.292 102.688 834.503 102.688Z" fill="#0FAAFF"/>
<path d="M834.503 114.085C833.713 114.085 833.085 114.713 833.085 115.501C833.085 116.274 833.713 116.916 834.503 116.916C835.292 116.916 835.92 116.289 835.92 115.501C835.935 114.728 835.292 114.085 834.503 114.085Z" fill="#0FAAFF"/>
<path d="M777.711 276.546C778.501 276.546 779.129 275.918 779.129 275.13C779.129 274.357 778.501 273.715 777.711 273.715C776.922 273.715 776.294 274.342 776.294 275.13C776.294 275.903 776.937 276.546 777.711 276.546Z" fill="#0FAAFF"/>
<path d="M722.002 229.484C722.002 228.696 721.359 228.069 720.585 228.069C719.795 228.069 719.167 228.696 719.167 229.484C719.167 230.272 719.795 230.9 720.585 230.9C721.374 230.9 722.002 230.272 722.002 229.484Z" fill="#0FAAFF"/>
<path d="M732.013 230.9C732.787 230.9 733.43 230.272 733.43 229.484C733.43 228.696 732.802 228.069 732.013 228.069C731.223 228.069 730.595 228.696 730.595 229.484C730.595 230.272 731.223 230.9 732.013 230.9Z" fill="#0FAAFF"/>
<path d="M720.585 239.48C719.795 239.48 719.167 240.123 719.167 240.896C719.167 241.684 719.795 242.311 720.585 242.311C721.359 242.311 722.002 241.684 722.002 240.896C722.002 240.123 721.374 239.48 720.585 239.48Z" fill="#0FAAFF"/>
<path d="M720.585 250.892C719.795 250.892 719.167 251.534 719.167 252.307C719.167 253.095 719.795 253.723 720.585 253.723C721.359 253.723 722.002 253.095 722.002 252.307C722.002 251.534 721.374 250.892 720.585 250.892Z" fill="#0FAAFF"/>
<path d="M720.585 262.303C719.795 262.303 719.167 262.946 719.167 263.719C719.167 264.507 719.795 265.134 720.585 265.134C721.359 265.134 722.002 264.507 722.002 263.719C722.002 262.931 721.374 262.303 720.585 262.303Z" fill="#0FAAFF"/>
<path d="M720.585 273.715C719.795 273.715 719.167 274.357 719.167 275.13C719.167 275.918 719.795 276.546 720.585 276.546C721.359 276.546 722.002 275.918 722.002 275.13C722.002 274.342 721.374 273.715 720.585 273.715Z" fill="#0FAAFF"/>
<path d="M732.013 239.48C731.223 239.48 730.595 240.123 730.595 240.896C730.595 241.684 731.223 242.311 732.013 242.311C732.787 242.311 733.43 241.684 733.43 240.896C733.43 240.123 732.802 239.48 732.013 239.48Z" fill="#0FAAFF"/>
<path d="M732.013 250.892C731.223 250.892 730.595 251.534 730.595 252.307C730.595 253.095 731.223 253.723 732.013 253.723C732.787 253.723 733.43 253.095 733.43 252.307C733.43 251.534 732.802 250.892 732.013 250.892Z" fill="#0FAAFF"/>
<path d="M732.013 262.303C731.223 262.303 730.595 262.946 730.595 263.719C730.595 264.507 731.223 265.134 732.013 265.134C732.787 265.134 733.43 264.507 733.43 263.719C733.43 262.931 732.802 262.303 732.013 262.303Z" fill="#0FAAFF"/>
<path d="M732.013 273.715C731.223 273.715 730.595 274.357 730.595 275.13C730.595 275.918 731.223 276.546 732.013 276.546C732.787 276.546 733.43 275.918 733.43 275.13C733.43 274.342 732.802 273.715 732.013 273.715Z" fill="#0FAAFF"/>
<path d="M743.441 239.48C742.652 239.48 742.024 240.123 742.024 240.896C742.024 241.684 742.652 242.311 743.441 242.311C744.216 242.311 744.859 241.684 744.859 240.896C744.859 240.123 744.216 239.48 743.441 239.48Z" fill="#0FAAFF"/>
<path d="M743.441 250.892C742.652 250.892 742.024 251.534 742.024 252.307C742.024 253.095 742.652 253.723 743.441 253.723C744.216 253.723 744.859 253.095 744.859 252.307C744.859 251.534 744.216 250.892 743.441 250.892Z" fill="#0FAAFF"/>
<path d="M743.441 262.303C742.652 262.303 742.024 262.946 742.024 263.719C742.024 264.507 742.652 265.134 743.441 265.134C744.216 265.134 744.859 264.507 744.859 263.719C744.859 262.931 744.216 262.303 743.441 262.303Z" fill="#0FAAFF"/>
<path d="M743.441 273.715C742.652 273.715 742.024 274.357 742.024 275.13C742.024 275.918 742.652 276.546 743.441 276.546C744.216 276.546 744.859 275.918 744.859 275.13C744.859 274.342 744.216 273.715 743.441 273.715Z" fill="#0FAAFF"/>
<path d="M754.869 253.723C755.658 253.723 756.287 253.095 756.287 252.307C756.287 251.534 755.658 250.892 754.869 250.892C754.08 250.892 753.452 251.519 753.452 252.307C753.452 253.095 754.08 253.723 754.869 253.723Z" fill="#0FAAFF"/>
<path d="M754.869 265.134C755.658 265.134 756.287 264.507 756.287 263.719C756.287 262.946 755.658 262.303 754.869 262.303C754.08 262.303 753.452 262.931 753.452 263.719C753.452 264.507 754.08 265.134 754.869 265.134Z" fill="#0FAAFF"/>
<path d="M754.869 276.546C755.658 276.546 756.287 275.918 756.287 275.13C756.287 274.357 755.658 273.715 754.869 273.715C754.08 273.715 753.452 274.342 753.452 275.13C753.452 275.903 754.08 276.546 754.869 276.546Z" fill="#0FAAFF"/>
<path d="M766.298 265.134C767.072 265.134 767.715 264.507 767.715 263.719C767.715 262.946 767.072 262.303 766.298 262.303C765.508 262.303 764.88 262.931 764.88 263.719C764.88 264.507 765.508 265.134 766.298 265.134Z" fill="#0FAAFF"/>
<path d="M766.298 276.546C767.072 276.546 767.715 275.918 767.715 275.13C767.715 274.357 767.072 273.715 766.298 273.715C765.508 273.715 764.88 274.342 764.88 275.13C764.88 275.903 765.508 276.546 766.298 276.546Z" fill="#0FAAFF"/>
<path d="M664.875 229.484C664.875 228.696 664.232 228.069 663.457 228.069C662.668 228.069 662.04 228.696 662.04 229.484C662.04 230.272 662.668 230.9 663.457 230.9C664.247 230.9 664.875 230.272 664.875 229.484Z" fill="#0FAAFF"/>
<path d="M676.303 229.484C676.303 228.696 675.66 228.069 674.886 228.069C674.096 228.069 673.468 228.696 673.468 229.484C673.468 230.272 674.096 230.9 674.886 230.9C675.66 230.9 676.303 230.272 676.303 229.484Z" fill="#0FAAFF"/>
<path d="M687.732 229.484C687.732 228.696 687.089 228.069 686.314 228.069C685.525 228.069 684.896 228.696 684.896 229.484C684.896 230.272 685.525 230.9 686.314 230.9C687.089 230.9 687.732 230.272 687.732 229.484Z" fill="#0FAAFF"/>
<path d="M699.16 229.484C699.16 228.696 698.517 228.069 697.742 228.069C696.953 228.069 696.325 228.696 696.325 229.484C696.325 230.272 696.953 230.9 697.742 230.9C698.517 230.9 699.16 230.272 699.16 229.484Z" fill="#0FAAFF"/>
<path d="M710.573 229.484C710.573 228.696 709.93 228.069 709.156 228.069C708.367 228.069 707.738 228.696 707.738 229.484C707.738 230.272 708.367 230.9 709.156 230.9C709.945 230.9 710.573 230.272 710.573 229.484Z" fill="#0FAAFF"/>
<path d="M663.457 239.48C662.668 239.48 662.04 240.123 662.04 240.896C662.04 241.684 662.668 242.311 663.457 242.311C664.247 242.311 664.875 241.684 664.875 240.896C664.875 240.123 664.247 239.48 663.457 239.48Z" fill="#0FAAFF"/>
<path d="M663.457 250.892C662.668 250.892 662.04 251.534 662.04 252.307C662.04 253.095 662.668 253.723 663.457 253.723C664.247 253.723 664.875 253.095 664.875 252.307C664.875 251.534 664.247 250.892 663.457 250.892Z" fill="#0FAAFF"/>
<path d="M674.886 239.48C674.096 239.48 673.468 240.123 673.468 240.896C673.468 241.684 674.096 242.311 674.886 242.311C675.675 242.311 676.303 241.684 676.303 240.896C676.303 240.123 675.66 239.48 674.886 239.48Z" fill="#0FAAFF"/>
<path d="M674.886 250.892C674.096 250.892 673.468 251.534 673.468 252.307C673.468 253.095 674.096 253.723 674.886 253.723C675.675 253.723 676.303 253.095 676.303 252.307C676.303 251.534 675.66 250.892 674.886 250.892Z" fill="#0FAAFF"/>
<path d="M674.886 262.303C674.096 262.303 673.468 262.946 673.468 263.719C673.468 264.507 674.096 265.134 674.886 265.134C675.675 265.134 676.303 264.507 676.303 263.719C676.303 262.931 675.66 262.303 674.886 262.303Z" fill="#0FAAFF"/>
<path d="M686.314 239.48C685.525 239.48 684.896 240.123 684.896 240.896C684.896 241.684 685.525 242.311 686.314 242.311C687.103 242.311 687.732 241.684 687.732 240.896C687.732 240.123 687.089 239.48 686.314 239.48Z" fill="#0FAAFF"/>
<path d="M686.314 250.892C685.525 250.892 684.896 251.534 684.896 252.307C684.896 253.095 685.525 253.723 686.314 253.723C687.103 253.723 687.732 253.095 687.732 252.307C687.732 251.534 687.089 250.892 686.314 250.892Z" fill="#0FAAFF"/>
<path d="M686.314 262.303C685.525 262.303 684.896 262.946 684.896 263.719C684.896 264.507 685.525 265.134 686.314 265.134C687.103 265.134 687.732 264.507 687.732 263.719C687.732 262.931 687.089 262.303 686.314 262.303Z" fill="#0FAAFF"/>
<path d="M686.314 273.715C685.525 273.715 684.896 274.357 684.896 275.13C684.896 275.918 685.525 276.546 686.314 276.546C687.103 276.546 687.732 275.918 687.732 275.13C687.732 274.342 687.089 273.715 686.314 273.715Z" fill="#0FAAFF"/>
<path d="M697.728 239.48C696.938 239.48 696.31 240.123 696.31 240.896C696.31 241.684 696.938 242.311 697.728 242.311C698.517 242.311 699.145 241.684 699.145 240.896C699.16 240.123 698.517 239.48 697.728 239.48Z" fill="#0FAAFF"/>
<path d="M697.728 250.892C696.938 250.892 696.31 251.534 696.31 252.307C696.31 253.095 696.938 253.723 697.728 253.723C698.517 253.723 699.145 253.095 699.145 252.307C699.16 251.534 698.517 250.892 697.728 250.892Z" fill="#0FAAFF"/>
<path d="M697.728 262.303C696.938 262.303 696.31 262.946 696.31 263.719C696.31 264.507 696.938 265.134 697.728 265.134C698.517 265.134 699.145 264.507 699.145 263.719C699.16 262.931 698.517 262.303 697.728 262.303Z" fill="#0FAAFF"/>
<path d="M697.728 273.715C696.938 273.715 696.31 274.357 696.31 275.13C696.31 275.918 696.938 276.546 697.728 276.546C698.517 276.546 699.145 275.918 699.145 275.13C699.16 274.342 698.517 273.715 697.728 273.715Z" fill="#0FAAFF"/>
<path d="M709.156 239.48C708.367 239.48 707.738 240.123 707.738 240.896C707.738 241.684 708.367 242.311 709.156 242.311C709.945 242.311 710.573 241.684 710.573 240.896C710.573 240.123 709.945 239.48 709.156 239.48Z" fill="#0FAAFF"/>
<path d="M709.156 250.892C708.367 250.892 707.738 251.534 707.738 252.307C707.738 253.095 708.367 253.723 709.156 253.723C709.945 253.723 710.573 253.095 710.573 252.307C710.573 251.534 709.945 250.892 709.156 250.892Z" fill="#0FAAFF"/>
<path d="M709.156 262.303C708.367 262.303 707.738 262.946 707.738 263.719C707.738 264.507 708.367 265.134 709.156 265.134C709.945 265.134 710.573 264.507 710.573 263.719C710.573 262.931 709.945 262.303 709.156 262.303Z" fill="#0FAAFF"/>
<path d="M709.156 273.715C708.367 273.715 707.738 274.357 707.738 275.13C707.738 275.918 708.367 276.546 709.156 276.546C709.945 276.546 710.573 275.918 710.573 275.13C710.573 274.342 709.945 273.715 709.156 273.715Z" fill="#0FAAFF"/>
<path d="M640.601 228.069C639.812 228.069 639.183 228.696 639.183 229.484C639.183 230.272 639.812 230.9 640.601 230.9C641.39 230.9 642.018 230.272 642.018 229.484C642.018 228.696 641.39 228.069 640.601 228.069Z" fill="#0FAAFF"/>
<path d="M653.447 229.484C653.447 228.696 652.818 228.069 652.029 228.069C651.254 228.069 650.611 228.696 650.611 229.484C650.611 230.272 651.24 230.9 652.029 230.9C652.818 230.9 653.447 230.272 653.447 229.484Z" fill="#0FAAFF"/>
<path d="M652.029 242.311C652.818 242.311 653.447 241.684 653.447 240.896C653.447 240.123 652.818 239.48 652.029 239.48C651.24 239.48 650.611 240.108 650.611 240.896C650.611 241.684 651.254 242.311 652.029 242.311Z" fill="#0FAAFF"/>
<path d="M138.528 114.523C139.303 114.523 139.946 113.896 139.946 113.108C139.946 112.334 139.318 111.692 138.528 111.692C137.739 111.692 137.111 112.32 137.111 113.108C137.111 113.881 137.754 114.523 138.528 114.523Z" fill="#0057D2"/>
<path d="M138.528 125.935C139.303 125.935 139.946 125.307 139.946 124.519C139.946 123.731 139.318 123.104 138.528 123.104C137.739 123.104 137.111 123.731 137.111 124.519C137.111 125.293 137.754 125.935 138.528 125.935Z" fill="#0057D2"/>
<path d="M151.374 124.519C151.374 123.731 150.731 123.104 149.957 123.104C149.167 123.104 148.539 123.731 148.539 124.519C148.539 125.307 149.167 125.935 149.957 125.935C150.731 125.935 151.374 125.293 151.374 124.519Z" fill="#0057D2"/>
<path d="M137.111 135.931C137.111 136.719 137.739 137.346 138.528 137.346C139.303 137.346 139.946 136.719 139.946 135.931C139.946 135.143 139.318 134.515 138.528 134.515C137.754 134.515 137.111 135.143 137.111 135.931Z" fill="#0057D2"/>
<path d="M82.819 67.4621C82.819 66.6741 82.176 66.0466 81.4015 66.0466C80.6123 66.0466 79.9839 66.6741 79.9839 67.4621C79.9839 68.2501 80.6123 68.8776 81.4015 68.8776C82.176 68.8776 82.819 68.2501 82.819 67.4621Z" fill="#0057D2"/>
<path d="M92.8297 68.8776C93.6042 68.8776 94.2473 68.2501 94.2473 67.4621C94.2473 66.6887 93.6189 66.0466 92.8297 66.0466C92.0405 66.0466 91.4121 66.6741 91.4121 67.4621C91.4121 68.2501 92.0405 68.8776 92.8297 68.8776Z" fill="#0057D2"/>
<path d="M81.4015 77.458C80.6123 77.458 79.9839 78.0855 79.9839 78.8735C79.9839 79.6469 80.6123 80.289 81.4015 80.289C82.176 80.289 82.819 79.6615 82.819 78.8735C82.819 78.1001 82.176 77.458 81.4015 77.458Z" fill="#0057D2"/>
<path d="M81.4015 88.8694C80.6123 88.8694 79.9839 89.4969 79.9839 90.2849C79.9839 91.0583 80.6123 91.7004 81.4015 91.7004C82.176 91.7004 82.819 91.0729 82.819 90.2849C82.819 89.5115 82.176 88.8694 81.4015 88.8694Z" fill="#0057D2"/>
<path d="M81.4015 100.281C80.6123 100.281 79.9839 100.908 79.9839 101.696C79.9839 102.47 80.6123 103.112 81.4015 103.112C82.176 103.112 82.819 102.484 82.819 101.696C82.819 100.908 82.176 100.281 81.4015 100.281Z" fill="#0057D2"/>
<path d="M81.4015 111.692C80.6123 111.692 79.9839 112.32 79.9839 113.108C79.9839 113.881 80.6123 114.523 81.4015 114.523C82.176 114.523 82.819 113.896 82.819 113.108C82.819 112.32 82.176 111.692 81.4015 111.692Z" fill="#0057D2"/>
<path d="M81.4015 123.104C80.6123 123.104 79.9839 123.731 79.9839 124.519C79.9839 125.293 80.6123 125.935 81.4015 125.935C82.176 125.935 82.819 125.307 82.819 124.519C82.819 123.731 82.176 123.104 81.4015 123.104Z" fill="#0057D2"/>
<path d="M92.8297 77.458C92.0405 77.458 91.4121 78.0855 91.4121 78.8735C91.4121 79.6469 92.0405 80.289 92.8297 80.289C93.6042 80.289 94.2473 79.6615 94.2473 78.8735C94.2473 78.1001 93.6042 77.458 92.8297 77.458Z" fill="#0057D2"/>
<path d="M92.8297 88.8694C92.0405 88.8694 91.4121 89.4969 91.4121 90.2849C91.4121 91.0583 92.0405 91.7004 92.8297 91.7004C93.6042 91.7004 94.2473 91.0729 94.2473 90.2849C94.2473 89.5115 93.6042 88.8694 92.8297 88.8694Z" fill="#0057D2"/>
<path d="M92.8297 100.281C92.0405 100.281 91.4121 100.908 91.4121 101.696C91.4121 102.47 92.0405 103.112 92.8297 103.112C93.6042 103.112 94.2473 102.484 94.2473 101.696C94.2473 100.908 93.6042 100.281 92.8297 100.281Z" fill="#0057D2"/>
<path d="M92.8297 111.692C92.0405 111.692 91.4121 112.32 91.4121 113.108C91.4121 113.881 92.0405 114.523 92.8297 114.523C93.6042 114.523 94.2473 113.896 94.2473 113.108C94.2473 112.32 93.6042 111.692 92.8297 111.692Z" fill="#0057D2"/>
<path d="M92.8297 123.104C92.0405 123.104 91.4121 123.731 91.4121 124.519C91.4121 125.293 92.0405 125.935 92.8297 125.935C93.6042 125.935 94.2473 125.307 94.2473 124.519C94.2473 123.731 93.6042 123.104 92.8297 123.104Z" fill="#0057D2"/>
<path d="M104.258 77.458C103.469 77.458 102.841 78.0855 102.841 78.8735C102.841 79.6469 103.469 80.289 104.258 80.289C105.033 80.289 105.676 79.6615 105.676 78.8735C105.676 78.1001 105.033 77.458 104.258 77.458Z" fill="#0057D2"/>
<path d="M104.258 88.8694C103.469 88.8694 102.841 89.4969 102.841 90.2849C102.841 91.0583 103.469 91.7004 104.258 91.7004C105.033 91.7004 105.676 91.0729 105.676 90.2849C105.676 89.5115 105.033 88.8694 104.258 88.8694Z" fill="#0057D2"/>
<path d="M104.258 100.281C103.469 100.281 102.841 100.908 102.841 101.696C102.841 102.47 103.469 103.112 104.258 103.112C105.033 103.112 105.676 102.484 105.676 101.696C105.676 100.908 105.033 100.281 104.258 100.281Z" fill="#0057D2"/>
<path d="M104.258 111.692C103.469 111.692 102.841 112.32 102.841 113.108C102.841 113.881 103.469 114.523 104.258 114.523C105.033 114.523 105.676 113.896 105.676 113.108C105.676 112.32 105.033 111.692 104.258 111.692Z" fill="#0057D2"/>
<path d="M104.258 123.104C103.469 123.104 102.841 123.731 102.841 124.519C102.841 125.293 103.469 125.935 104.258 125.935C105.033 125.935 105.676 125.307 105.676 124.519C105.676 123.731 105.033 123.104 104.258 123.104Z" fill="#0057D2"/>
<path d="M115.671 91.7004C116.446 91.7004 117.089 91.0729 117.089 90.2849C117.089 89.5115 116.461 88.8694 115.671 88.8694C114.882 88.8694 114.254 89.4969 114.254 90.2849C114.254 91.0729 114.897 91.7004 115.671 91.7004Z" fill="#0057D2"/>
<path d="M115.671 103.112C116.446 103.112 117.089 102.484 117.089 101.696C117.089 100.923 116.461 100.281 115.671 100.281C114.882 100.281 114.254 100.908 114.254 101.696C114.254 102.484 114.897 103.112 115.671 103.112Z" fill="#0057D2"/>
<path d="M115.671 114.523C116.446 114.523 117.089 113.896 117.089 113.108C117.089 112.334 116.461 111.692 115.671 111.692C114.882 111.692 114.254 112.32 114.254 113.108C114.254 113.881 114.897 114.523 115.671 114.523Z" fill="#0057D2"/>
<path d="M115.671 125.935C116.446 125.935 117.089 125.307 117.089 124.519C117.089 123.731 116.461 123.104 115.671 123.104C114.882 123.104 114.254 123.731 114.254 124.519C114.254 125.293 114.897 125.935 115.671 125.935Z" fill="#0057D2"/>
<path d="M127.1 103.112C127.875 103.112 128.518 102.484 128.518 101.696C128.518 100.923 127.889 100.281 127.1 100.281C126.311 100.281 125.683 100.908 125.683 101.696C125.683 102.484 126.326 103.112 127.1 103.112Z" fill="#0057D2"/>
<path d="M127.1 114.523C127.875 114.523 128.518 113.896 128.518 113.108C128.518 112.334 127.889 111.692 127.1 111.692C126.311 111.692 125.683 112.32 125.683 113.108C125.683 113.881 126.326 114.523 127.1 114.523Z" fill="#0057D2"/>
<path d="M127.1 125.935C127.875 125.935 128.518 125.307 128.518 124.519C128.518 123.731 127.889 123.104 127.1 123.104C126.311 123.104 125.683 123.731 125.683 124.519C125.683 125.293 126.326 125.935 127.1 125.935Z" fill="#0057D2"/>
<path d="M81.4015 134.515C80.6123 134.515 79.9839 135.143 79.9839 135.931C79.9839 136.704 80.6123 137.346 81.4015 137.346C82.176 137.346 82.819 136.719 82.819 135.931C82.819 135.143 82.176 134.515 81.4015 134.515Z" fill="#0057D2"/>
<path d="M81.4015 145.912C80.6123 145.912 79.9839 146.54 79.9839 147.328C79.9839 148.101 80.6123 148.743 81.4015 148.743C82.176 148.743 82.819 148.116 82.819 147.328C82.819 146.554 82.176 145.912 81.4015 145.912Z" fill="#0057D2"/>
<path d="M81.4015 157.323C80.6123 157.323 79.9839 157.951 79.9839 158.739C79.9839 159.512 80.6123 160.154 81.4015 160.154C82.176 160.154 82.819 159.527 82.819 158.739C82.819 157.966 82.176 157.323 81.4015 157.323Z" fill="#0057D2"/>
<path d="M81.4015 168.735C80.6123 168.735 79.9839 169.363 79.9839 170.151C79.9839 170.924 80.6123 171.566 81.4015 171.566C82.176 171.566 82.819 170.939 82.819 170.151C82.819 169.363 82.176 168.735 81.4015 168.735Z" fill="#0057D2"/>
<path d="M81.4015 180.146C80.6123 180.146 79.9839 180.774 79.9839 181.562C79.9839 182.335 80.6123 182.977 81.4015 182.977C82.176 182.977 82.819 182.35 82.819 181.562C82.819 180.774 82.176 180.146 81.4015 180.146Z" fill="#0057D2"/>
<path d="M92.8297 134.515C92.0405 134.515 91.4121 135.143 91.4121 135.931C91.4121 136.704 92.0405 137.346 92.8297 137.346C93.6042 137.346 94.2473 136.719 94.2473 135.931C94.2473 135.143 93.6042 134.515 92.8297 134.515Z" fill="#0057D2"/>
<path d="M92.8297 145.912C92.0405 145.912 91.4121 146.54 91.4121 147.328C91.4121 148.101 92.0405 148.743 92.8297 148.743C93.6042 148.743 94.2473 148.116 94.2473 147.328C94.2473 146.554 93.6042 145.912 92.8297 145.912Z" fill="#0057D2"/>
<path d="M92.8297 157.323C92.0405 157.323 91.4121 157.951 91.4121 158.739C91.4121 159.512 92.0405 160.154 92.8297 160.154C93.6042 160.154 94.2473 159.527 94.2473 158.739C94.2473 157.966 93.6042 157.323 92.8297 157.323Z" fill="#0057D2"/>
<path d="M92.8297 168.735C92.0405 168.735 91.4121 169.363 91.4121 170.151C91.4121 170.924 92.0405 171.566 92.8297 171.566C93.6042 171.566 94.2473 170.939 94.2473 170.151C94.2473 169.363 93.6042 168.735 92.8297 168.735Z" fill="#0057D2"/>
<path d="M92.8297 180.146C92.0405 180.146 91.4121 180.774 91.4121 181.562C91.4121 182.335 92.0405 182.977 92.8297 182.977C93.6042 182.977 94.2473 182.35 94.2473 181.562C94.2473 180.774 93.6042 180.146 92.8297 180.146Z" fill="#0057D2"/>
<path d="M104.258 134.515C103.469 134.515 102.841 135.143 102.841 135.931C102.841 136.704 103.469 137.346 104.258 137.346C105.033 137.346 105.676 136.719 105.676 135.931C105.676 135.143 105.033 134.515 104.258 134.515Z" fill="#0057D2"/>
<path d="M104.258 145.912C103.469 145.912 102.841 146.54 102.841 147.328C102.841 148.101 103.469 148.743 104.258 148.743C105.033 148.743 105.676 148.116 105.676 147.328C105.676 146.554 105.033 145.912 104.258 145.912Z" fill="#0057D2"/>
<path d="M104.258 157.323C103.469 157.323 102.841 157.951 102.841 158.739C102.841 159.512 103.469 160.154 104.258 160.154C105.033 160.154 105.676 159.527 105.676 158.739C105.676 157.966 105.033 157.323 104.258 157.323Z" fill="#0057D2"/>
<path d="M104.258 168.735C103.469 168.735 102.841 169.363 102.841 170.151C102.841 170.924 103.469 171.566 104.258 171.566C105.033 171.566 105.676 170.939 105.676 170.151C105.676 169.363 105.033 168.735 104.258 168.735Z" fill="#0057D2"/>
<path d="M115.671 134.515C114.882 134.515 114.254 135.143 114.254 135.931C114.254 136.704 114.882 137.346 115.671 137.346C116.446 137.346 117.089 136.719 117.089 135.931C117.089 135.143 116.461 134.515 115.671 134.515Z" fill="#0057D2"/>
<path d="M115.671 145.912C114.882 145.912 114.254 146.54 114.254 147.328C114.254 148.101 114.882 148.743 115.671 148.743C116.446 148.743 117.089 148.116 117.089 147.328C117.089 146.554 116.461 145.912 115.671 145.912Z" fill="#0057D2"/>
<path d="M115.671 157.323C114.882 157.323 114.254 157.951 114.254 158.739C114.254 159.512 114.882 160.154 115.671 160.154C116.446 160.154 117.089 159.527 117.089 158.739C117.089 157.966 116.461 157.323 115.671 157.323Z" fill="#0057D2"/>
<path d="M127.1 134.515C126.311 134.515 125.683 135.143 125.683 135.931C125.683 136.704 126.311 137.346 127.1 137.346C127.875 137.346 128.518 136.719 128.518 135.931C128.518 135.143 127.889 134.515 127.1 134.515Z" fill="#0057D2"/>
<path d="M127.1 145.912C126.311 145.912 125.683 146.54 125.683 147.328C125.683 148.101 126.311 148.743 127.1 148.743C127.875 148.743 128.518 148.116 128.518 147.328C128.518 146.554 127.889 145.912 127.1 145.912Z" fill="#0057D2"/>
<path d="M25.6921 67.4621C25.6921 66.6741 25.0491 66.0466 24.2745 66.0466C23.4853 66.0466 22.8569 66.6741 22.8569 67.4621C22.8569 68.2501 23.4853 68.8776 24.2745 68.8776C25.0491 68.8776 25.6921 68.2501 25.6921 67.4621Z" fill="#0057D2"/>
<path d="M37.1203 67.4621C37.1203 66.6741 36.4773 66.0466 35.7027 66.0466C34.9136 66.0466 34.2852 66.6741 34.2852 67.4621C34.2852 68.2501 34.9136 68.8776 35.7027 68.8776C36.4773 68.8776 37.1203 68.2501 37.1203 67.4621Z" fill="#0057D2"/>
<path d="M48.5339 67.4621C48.5339 66.6741 47.8909 66.0466 47.1163 66.0466C46.3271 66.0466 45.6987 66.6741 45.6987 67.4621C45.6987 68.2501 46.3271 68.8776 47.1163 68.8776C47.9055 68.8776 48.5339 68.2501 48.5339 67.4621Z" fill="#0057D2"/>
<path d="M59.9621 67.4621C59.9621 66.6741 59.3191 66.0466 58.5445 66.0466C57.7554 66.0466 57.127 66.6741 57.127 67.4621C57.127 68.2501 57.7554 68.8776 58.5445 68.8776C59.3337 68.8776 59.9621 68.2501 59.9621 67.4621Z" fill="#0057D2"/>
<path d="M71.3908 67.4621C71.3908 66.6741 70.7478 66.0466 69.9732 66.0466C69.1841 66.0466 68.5557 66.6741 68.5557 67.4621C68.5557 68.2501 69.1841 68.8776 69.9732 68.8776C70.7624 68.8776 71.3908 68.2501 71.3908 67.4621Z" fill="#0057D2"/>
<path d="M24.2745 77.458C23.4853 77.458 22.8569 78.0855 22.8569 78.8735C22.8569 79.6469 23.4853 80.289 24.2745 80.289C25.0491 80.289 25.6921 79.6615 25.6921 78.8735C25.6921 78.1001 25.0491 77.458 24.2745 77.458Z" fill="#0057D2"/>
<path d="M24.2745 88.8694C23.4853 88.8694 22.8569 89.4969 22.8569 90.2849C22.8569 91.0583 23.4853 91.7004 24.2745 91.7004C25.0491 91.7004 25.6921 91.0729 25.6921 90.2849C25.6921 89.5115 25.0491 88.8694 24.2745 88.8694Z" fill="#0057D2"/>
<path d="M35.7027 77.458C34.9136 77.458 34.2852 78.0855 34.2852 78.8735C34.2852 79.6469 34.9136 80.289 35.7027 80.289C36.4773 80.289 37.1203 79.6615 37.1203 78.8735C37.1203 78.1001 36.4773 77.458 35.7027 77.458Z" fill="#0057D2"/>
<path d="M35.7027 88.8694C34.9136 88.8694 34.2852 89.4969 34.2852 90.2849C34.2852 91.0583 34.9136 91.7004 35.7027 91.7004C36.4773 91.7004 37.1203 91.0729 37.1203 90.2849C37.1203 89.5115 36.4773 88.8694 35.7027 88.8694Z" fill="#0057D2"/>
<path d="M35.7027 100.281C34.9136 100.281 34.2852 100.908 34.2852 101.696C34.2852 102.47 34.9136 103.112 35.7027 103.112C36.4773 103.112 37.1203 102.484 37.1203 101.696C37.1203 100.908 36.4773 100.281 35.7027 100.281Z" fill="#0057D2"/>
<path d="M47.1163 77.458C46.3271 77.458 45.6987 78.0855 45.6987 78.8735C45.6987 79.6469 46.3271 80.289 47.1163 80.289C47.8909 80.289 48.5339 79.6615 48.5339 78.8735C48.5339 78.1001 47.9055 77.458 47.1163 77.458Z" fill="#0057D2"/>
<path d="M47.1163 88.8694C46.3271 88.8694 45.6987 89.4969 45.6987 90.2849C45.6987 91.0583 46.3271 91.7004 47.1163 91.7004C47.8909 91.7004 48.5339 91.0729 48.5339 90.2849C48.5339 89.5115 47.9055 88.8694 47.1163 88.8694Z" fill="#0057D2"/>
<path d="M47.1163 100.281C46.3271 100.281 45.6987 100.908 45.6987 101.696C45.6987 102.47 46.3271 103.112 47.1163 103.112C47.8909 103.112 48.5339 102.484 48.5339 101.696C48.5339 100.908 47.9055 100.281 47.1163 100.281Z" fill="#0057D2"/>
<path d="M47.1163 111.692C46.3271 111.692 45.6987 112.32 45.6987 113.108C45.6987 113.881 46.3271 114.523 47.1163 114.523C47.8909 114.523 48.5339 113.896 48.5339 113.108C48.5339 112.32 47.9055 111.692 47.1163 111.692Z" fill="#0057D2"/>
<path d="M58.5445 77.458C57.7554 77.458 57.127 78.0855 57.127 78.8735C57.127 79.6469 57.7554 80.289 58.5445 80.289C59.3191 80.289 59.9621 79.6615 59.9621 78.8735C59.9621 78.1001 59.3337 77.458 58.5445 77.458Z" fill="#0057D2"/>
<path d="M58.5445 88.8694C57.7554 88.8694 57.127 89.4969 57.127 90.2849C57.127 91.0583 57.7554 91.7004 58.5445 91.7004C59.3191 91.7004 59.9621 91.0729 59.9621 90.2849C59.9621 89.5115 59.3337 88.8694 58.5445 88.8694Z" fill="#0057D2"/>
<path d="M58.5445 100.281C57.7554 100.281 57.127 100.908 57.127 101.696C57.127 102.47 57.7554 103.112 58.5445 103.112C59.3191 103.112 59.9621 102.484 59.9621 101.696C59.9621 100.908 59.3337 100.281 58.5445 100.281Z" fill="#0057D2"/>
<path d="M58.5445 111.692C57.7554 111.692 57.127 112.32 57.127 113.108C57.127 113.881 57.7554 114.523 58.5445 114.523C59.3191 114.523 59.9621 113.896 59.9621 113.108C59.9621 112.32 59.3337 111.692 58.5445 111.692Z" fill="#0057D2"/>
<path d="M58.5445 123.104C57.7554 123.104 57.127 123.731 57.127 124.519C57.127 125.293 57.7554 125.935 58.5445 125.935C59.3191 125.935 59.9621 125.307 59.9621 124.519C59.9621 123.731 59.3337 123.104 58.5445 123.104Z" fill="#0057D2"/>
<path d="M69.9732 77.458C69.1841 77.458 68.5557 78.0855 68.5557 78.8735C68.5557 79.6469 69.1841 80.289 69.9732 80.289C70.7478 80.289 71.3908 79.6615 71.3908 78.8735C71.3908 78.1001 70.7624 77.458 69.9732 77.458Z" fill="#0057D2"/>
<path d="M69.9732 88.8694C69.1841 88.8694 68.5557 89.4969 68.5557 90.2849C68.5557 91.0583 69.1841 91.7004 69.9732 91.7004C70.7478 91.7004 71.3908 91.0729 71.3908 90.2849C71.3908 89.5115 70.7624 88.8694 69.9732 88.8694Z" fill="#0057D2"/>
<path d="M69.9732 100.281C69.1841 100.281 68.5557 100.908 68.5557 101.696C68.5557 102.47 69.1841 103.112 69.9732 103.112C70.7478 103.112 71.3908 102.484 71.3908 101.696C71.3908 100.908 70.7624 100.281 69.9732 100.281Z" fill="#0057D2"/>
<path d="M69.9732 111.692C69.1841 111.692 68.5557 112.32 68.5557 113.108C68.5557 113.881 69.1841 114.523 69.9732 114.523C70.7478 114.523 71.3908 113.896 71.3908 113.108C71.3908 112.32 70.7624 111.692 69.9732 111.692Z" fill="#0057D2"/>
<path d="M69.9732 123.104C69.1841 123.104 68.5557 123.731 68.5557 124.519C68.5557 125.293 69.1841 125.935 69.9732 125.935C70.7478 125.935 71.3908 125.307 71.3908 124.519C71.3908 123.731 70.7624 123.104 69.9732 123.104Z" fill="#0057D2"/>
<path d="M24.2745 157.323C23.4853 157.323 22.8569 157.951 22.8569 158.739C22.8569 159.512 23.4853 160.154 24.2745 160.154C25.0491 160.154 25.6921 159.527 25.6921 158.739C25.6921 157.966 25.0491 157.323 24.2745 157.323Z" fill="#0057D2"/>
<path d="M24.2745 168.735C23.4853 168.735 22.8569 169.363 22.8569 170.151C22.8569 170.924 23.4853 171.566 24.2745 171.566C25.0491 171.566 25.6921 170.939 25.6921 170.151C25.6921 169.363 25.0491 168.735 24.2745 168.735Z" fill="#0057D2"/>
<path d="M24.2745 180.146C23.4853 180.146 22.8569 180.774 22.8569 181.562C22.8569 182.335 23.4853 182.977 24.2745 182.977C25.0491 182.977 25.6921 182.35 25.6921 181.562C25.6921 180.774 25.0491 180.146 24.2745 180.146Z" fill="#0057D2"/>
<path d="M35.7027 145.912C34.9136 145.912 34.2852 146.54 34.2852 147.328C34.2852 148.101 34.9136 148.743 35.7027 148.743C36.4773 148.743 37.1203 148.116 37.1203 147.328C37.1203 146.554 36.4773 145.912 35.7027 145.912Z" fill="#0057D2"/>
<path d="M35.7027 157.323C34.9136 157.323 34.2852 157.951 34.2852 158.739C34.2852 159.512 34.9136 160.154 35.7027 160.154C36.4773 160.154 37.1203 159.527 37.1203 158.739C37.1203 157.966 36.4773 157.323 35.7027 157.323Z" fill="#0057D2"/>
<path d="M35.7027 168.735C34.9136 168.735 34.2852 169.363 34.2852 170.151C34.2852 170.924 34.9136 171.566 35.7027 171.566C36.4773 171.566 37.1203 170.939 37.1203 170.151C37.1203 169.363 36.4773 168.735 35.7027 168.735Z" fill="#0057D2"/>
<path d="M35.7027 180.146C34.9136 180.146 34.2852 180.774 34.2852 181.562C34.2852 182.335 34.9136 182.977 35.7027 182.977C36.4773 182.977 37.1203 182.35 37.1203 181.562C37.1203 180.774 36.4773 180.146 35.7027 180.146Z" fill="#0057D2"/>
<path d="M47.1163 134.515C46.3271 134.515 45.6987 135.143 45.6987 135.931C45.6987 136.704 46.3271 137.346 47.1163 137.346C47.8909 137.346 48.5339 136.719 48.5339 135.931C48.5339 135.143 47.9055 134.515 47.1163 134.515Z" fill="#0057D2"/>
<path d="M47.1163 145.912C46.3271 145.912 45.6987 146.54 45.6987 147.328C45.6987 148.101 46.3271 148.743 47.1163 148.743C47.8909 148.743 48.5339 148.116 48.5339 147.328C48.5339 146.554 47.9055 145.912 47.1163 145.912Z" fill="#0057D2"/>
<path d="M47.1163 157.323C46.3271 157.323 45.6987 157.951 45.6987 158.739C45.6987 159.512 46.3271 160.154 47.1163 160.154C47.8909 160.154 48.5339 159.527 48.5339 158.739C48.5339 157.966 47.9055 157.323 47.1163 157.323Z" fill="#0057D2"/>
<path d="M47.1163 168.735C46.3271 168.735 45.6987 169.363 45.6987 170.151C45.6987 170.924 46.3271 171.566 47.1163 171.566C47.8909 171.566 48.5339 170.939 48.5339 170.151C48.5339 169.363 47.9055 168.735 47.1163 168.735Z" fill="#0057D2"/>
<path d="M47.1163 180.146C46.3271 180.146 45.6987 180.774 45.6987 181.562C45.6987 182.335 46.3271 182.977 47.1163 182.977C47.8909 182.977 48.5339 182.35 48.5339 181.562C48.5339 180.774 47.9055 180.146 47.1163 180.146Z" fill="#0057D2"/>
<path d="M58.5445 134.515C57.7554 134.515 57.127 135.143 57.127 135.931C57.127 136.704 57.7554 137.346 58.5445 137.346C59.3191 137.346 59.9621 136.719 59.9621 135.931C59.9621 135.143 59.3337 134.515 58.5445 134.515Z" fill="#0057D2"/>
<path d="M58.5445 145.912C57.7554 145.912 57.127 146.54 57.127 147.328C57.127 148.101 57.7554 148.743 58.5445 148.743C59.3191 148.743 59.9621 148.116 59.9621 147.328C59.9621 146.554 59.3337 145.912 58.5445 145.912Z" fill="#0057D2"/>
<path d="M58.5445 157.323C57.7554 157.323 57.127 157.951 57.127 158.739C57.127 159.512 57.7554 160.154 58.5445 160.154C59.3191 160.154 59.9621 159.527 59.9621 158.739C59.9621 157.966 59.3337 157.323 58.5445 157.323Z" fill="#0057D2"/>
<path d="M58.5445 168.735C57.7554 168.735 57.127 169.363 57.127 170.151C57.127 170.924 57.7554 171.566 58.5445 171.566C59.3191 171.566 59.9621 170.939 59.9621 170.151C59.9621 169.363 59.3337 168.735 58.5445 168.735Z" fill="#0057D2"/>
<path d="M58.5445 180.146C57.7554 180.146 57.127 180.774 57.127 181.562C57.127 182.335 57.7554 182.977 58.5445 182.977C59.3191 182.977 59.9621 182.35 59.9621 181.562C59.9621 180.774 59.3337 180.146 58.5445 180.146Z" fill="#0057D2"/>
<path d="M69.9732 134.515C69.1841 134.515 68.5557 135.143 68.5557 135.931C68.5557 136.704 69.1841 137.346 69.9732 137.346C70.7478 137.346 71.3908 136.719 71.3908 135.931C71.3908 135.143 70.7624 134.515 69.9732 134.515Z" fill="#0057D2"/>
<path d="M69.9732 145.912C69.1841 145.912 68.5557 146.54 68.5557 147.328C68.5557 148.101 69.1841 148.743 69.9732 148.743C70.7478 148.743 71.3908 148.116 71.3908 147.328C71.3908 146.554 70.7624 145.912 69.9732 145.912Z" fill="#0057D2"/>
<path d="M69.9732 157.323C69.1841 157.323 68.5557 157.951 68.5557 158.739C68.5557 159.512 69.1841 160.154 69.9732 160.154C70.7478 160.154 71.3908 159.527 71.3908 158.739C71.3908 157.966 70.7624 157.323 69.9732 157.323Z" fill="#0057D2"/>
<path d="M69.9732 168.735C69.1841 168.735 68.5557 169.363 68.5557 170.151C68.5557 170.924 69.1841 171.566 69.9732 171.566C70.7478 171.566 71.3908 170.939 71.3908 170.151C71.3908 169.363 70.7624 168.735 69.9732 168.735Z" fill="#0057D2"/>
<path d="M69.9732 180.146C69.1841 180.146 68.5557 180.774 68.5557 181.562C68.5557 182.335 69.1841 182.977 69.9732 182.977C70.7478 182.977 71.3908 182.35 71.3908 181.562C71.3908 180.774 70.7624 180.146 69.9732 180.146Z" fill="#0057D2"/>
<path d="M1.41758 66.061C0.628412 66.061 0 66.6885 0 67.4765C0 68.2499 0.628412 68.892 1.41758 68.892C2.20675 68.892 2.83516 68.2645 2.83516 67.4765C2.83516 66.6885 2.20675 66.061 1.41758 66.061Z" fill="#0057D2"/>
<path d="M14.2634 67.4621C14.2634 66.6741 13.6204 66.0466 12.8458 66.0466C12.0566 66.0466 11.4282 66.6741 11.4282 67.4621C11.4282 68.2501 12.0566 68.8776 12.8458 68.8776C13.6204 68.8776 14.2634 68.2501 14.2634 67.4621Z" fill="#0057D2"/>
<path d="M12.8458 80.289C13.635 80.289 14.2634 79.6615 14.2634 78.8735C14.2634 78.1001 13.635 77.458 12.8458 77.458C12.0566 77.458 11.4282 78.0855 11.4282 78.8735C11.4282 79.6615 12.0566 80.289 12.8458 80.289Z" fill="#0057D2"/>
<path d="M0 181.562C0 182.35 0.628412 182.977 1.41758 182.977C2.20675 182.977 2.83516 182.35 2.83516 181.562C2.83516 180.774 2.20675 180.146 1.41758 180.146C0.643027 180.146 0 180.774 0 181.562Z" fill="#0057D2"/>
<path d="M12.8458 168.735C12.0566 168.735 11.4282 169.363 11.4282 170.151C11.4282 170.924 12.0566 171.566 12.8458 171.566C13.635 171.566 14.2634 170.939 14.2634 170.151C14.2634 169.363 13.6204 168.735 12.8458 168.735Z" fill="#0057D2"/>
<path d="M12.8458 180.146C12.0566 180.146 11.4282 180.774 11.4282 181.562C11.4282 182.335 12.0566 182.977 12.8458 182.977C13.635 182.977 14.2634 182.35 14.2634 181.562C14.2634 180.774 13.6204 180.146 12.8458 180.146Z" fill="#0057D2"/>
<path d="M997.48 278.282L1021.97 262.391L997.48 246.514V278.282Z" stroke="#0057D2" stroke-width="0.5" stroke-miterlimit="10" stroke-linecap="round" stroke-linejoin="round"/>
<path d="M997.48 153.063L1021.97 137.186L997.48 121.294V153.063Z" stroke="#0057D2" stroke-width="0.5" stroke-miterlimit="10" stroke-linecap="round" stroke-linejoin="round"/>
<path d="M997.48 184.203L1021.97 168.327L997.48 152.45V184.203Z" stroke="#0057D2" stroke-width="0.5" stroke-miterlimit="10" stroke-linecap="round" stroke-linejoin="round"/>
<path d="M997.48 215.359L1021.97 199.467L997.48 183.59V215.359Z" stroke="#0057D2" stroke-width="0.5" stroke-miterlimit="10" stroke-linecap="round" stroke-linejoin="round"/>
<path d="M997.48 246.499L1021.97 230.623L997.48 214.731V246.499Z" stroke="#0057D2" stroke-width="0.5" stroke-miterlimit="10" stroke-linecap="round" stroke-linejoin="round"/>
<path d="M1046.56 153.063L1022.06 137.186L1046.56 121.294V153.063Z" stroke="#0057D2" stroke-width="0.5" stroke-miterlimit="10" stroke-linecap="round" stroke-linejoin="round"/>
<path d="M1046.56 153.063L1071.05 137.186L1046.56 121.294V153.063Z" stroke="#0057D2" stroke-width="0.5" stroke-miterlimit="10" stroke-linecap="round" stroke-linejoin="round"/>
<path d="M1046.56 184.203L1022.06 168.327L1046.56 152.45V184.203Z" stroke="#0057D2" stroke-width="0.5" stroke-miterlimit="10" stroke-linecap="round" stroke-linejoin="round"/>
<path d="M1046.56 184.203L1071.05 168.327L1046.56 152.45V184.203Z" stroke="#0057D2" stroke-width="0.5" stroke-miterlimit="10" stroke-linecap="round" stroke-linejoin="round"/>
<path d="M1046.56 215.359L1022.06 199.467L1046.56 183.59V215.359Z" stroke="#0057D2" stroke-width="0.5" stroke-miterlimit="10" stroke-linecap="round" stroke-linejoin="round"/>
<path d="M1046.56 215.359L1071.05 199.467L1046.56 183.59V215.359Z" stroke="#0057D2" stroke-width="0.5" stroke-miterlimit="10" stroke-linecap="round" stroke-linejoin="round"/>
<path d="M1046.56 246.499L1022.06 230.623L1046.56 214.731V246.499Z" stroke="#0057D2" stroke-width="0.5" stroke-miterlimit="10" stroke-linecap="round" stroke-linejoin="round"/>
<path d="M1046.56 246.499L1071.05 230.623L1046.56 214.731V246.499Z" stroke="#0057D2" stroke-width="0.5" stroke-miterlimit="10" stroke-linecap="round" stroke-linejoin="round"/>
<path d="M1096.14 153.063L1071.65 137.186L1096.14 121.294V153.063Z" stroke="#0057D2" stroke-width="0.5" stroke-miterlimit="10" stroke-linecap="round" stroke-linejoin="round"/>
<path d="M1096.14 153.063L1120.63 137.186L1096.14 121.294V153.063Z" stroke="#0057D2" stroke-width="0.5" stroke-miterlimit="10" stroke-linecap="round" stroke-linejoin="round"/>
<path d="M1096.14 184.203L1071.65 168.327L1096.14 152.45V184.203Z" stroke="#0057D2" stroke-width="0.5" stroke-miterlimit="10" stroke-linecap="round" stroke-linejoin="round"/>
<path d="M1096.14 184.203L1120.63 168.327L1096.14 152.45V184.203Z" stroke="#0057D2" stroke-width="0.5" stroke-miterlimit="10" stroke-linecap="round" stroke-linejoin="round"/>
<path d="M1096.14 215.359L1071.65 199.467L1096.14 183.59V215.359Z" stroke="#0057D2" stroke-width="0.5" stroke-miterlimit="10" stroke-linecap="round" stroke-linejoin="round"/>
<path d="M1096.14 215.359L1120.63 199.467L1096.14 183.59V215.359Z" stroke="#0057D2" stroke-width="0.5" stroke-miterlimit="10" stroke-linecap="round" stroke-linejoin="round"/>
<path d="M1145.22 153.063L1120.72 137.186L1145.22 121.294V153.063Z" stroke="#0057D2" stroke-width="0.5" stroke-miterlimit="10" stroke-linecap="round" stroke-linejoin="round"/>
<path d="M1145.22 184.203L1120.72 168.327L1145.22 152.45V184.203Z" stroke="#0057D2" stroke-width="0.5" stroke-miterlimit="10" stroke-linecap="round" stroke-linejoin="round"/>
<path d="M1145.22 215.359L1120.72 199.467L1145.22 183.59V215.359Z" stroke="#0057D2" stroke-width="0.5" stroke-miterlimit="10" stroke-linecap="round" stroke-linejoin="round"/>
<path d="M1096.14 215.359L1071.05 230.623" stroke="#0057D2" stroke-width="0.5" stroke-miterlimit="10" stroke-linecap="round" stroke-linejoin="round"/>
<path d="M1046.56 246.499L1021.97 262.391" stroke="#0057D2" stroke-width="0.5" stroke-miterlimit="10" stroke-linecap="round" stroke-linejoin="round"/>
<path d="M1243.36 121.294H998.24" stroke="#0057D2" stroke-width="0.5" stroke-miterlimit="10" stroke-linecap="round" stroke-linejoin="round"/>
<path d="M1037.68 95.655L1031.09 102.236H1022.25L1028.84 95.655L1022.25 89.0737H1030.38C1030.58 89.0737 1030.79 89.1029 1030.99 89.1759C1031.22 89.2634 1031.43 89.3948 1031.6 89.5699L1037.68 95.655Z" fill="#0057D2"/>
<path d="M1053.12 95.655L1046.53 102.236H1037.68L1044.28 95.655L1037.68 89.0737H1045.81C1046.01 89.0737 1046.22 89.1029 1046.42 89.1759C1046.66 89.2634 1046.86 89.3948 1047.04 89.5699L1053.12 95.655Z" fill="#0057D2"/>
<path d="M1068.55 95.655L1061.96 102.236H1053.12L1059.71 95.655L1053.12 89.0737H1061.24C1061.45 89.0737 1061.65 89.1029 1061.86 89.1759C1062.09 89.2634 1062.29 89.3948 1062.47 89.5699L1068.55 95.655Z" fill="#0057D2"/>
<path d="M1083.98 95.655L1077.39 102.236H1068.55L1075.14 95.655L1068.55 89.0737H1076.67C1076.88 89.0737 1077.08 89.1029 1077.29 89.1759C1077.52 89.2634 1077.73 89.3948 1077.9 89.5699L1083.98 95.655Z" fill="#0057D2"/>
</svg>
