<svg width="20" height="21" viewBox="0 0 20 21" fill="none" xmlns="http://www.w3.org/2000/svg">
<path fill-rule="evenodd" clip-rule="evenodd" d="M7.35826 1.60574C7.54604 0.671847 8.36643 0 9.31902 0H10.6803C11.6336 0 12.4545 0.672919 12.6414 1.60777L12.8951 2.87593L14.5888 3.91521L15.7576 3.43177C16.7271 3.03076 17.8417 3.44708 18.3109 4.38548L19.0214 5.80667C19.4536 6.67089 19.206 7.72045 18.4333 8.30054L17.502 8.99971V11.0003L18.4333 11.6995C19.206 12.2796 19.4536 13.3291 19.0214 14.1933L18.306 15.6242C17.8408 16.5546 16.7401 16.9731 15.7744 16.5867L14.5892 16.1127L12.894 17.1298L12.6413 18.3949C12.4545 19.33 11.6336 20.0032 10.6801 20.0032H9.31922C8.36645 20.0032 7.54596 19.3311 7.35837 18.397L7.10391 17.1299L5.41065 16.1128L4.22579 16.5867C3.26001 16.9731 2.15934 16.5546 1.69415 15.6242L0.978883 14.1937C0.546619 13.3292 0.79448 12.2792 1.56774 11.6993L2.50008 11V9L1.56774 8.30075C0.79448 7.7208 0.546619 6.67085 0.978884 5.80632L1.6893 4.38548C2.1585 3.44708 3.27309 3.03076 4.24259 3.43177L5.41112 3.9151L7.10287 2.87589L7.35826 1.60574ZM10.6803 2L9.31902 2L9.06362 3.27014C8.95412 3.81475 8.62304 4.28928 8.1497 4.58004L6.45796 5.61925C5.9121 5.95456 5.23866 6.0081 4.64669 5.76324L3.47816 5.27991L2.76774 6.70075L3.70008 7.4C4.20369 7.77771 4.50008 8.37049 4.50008 9V11C4.50008 11.6295 4.20369 12.2223 3.70008 12.6L2.76774 13.2993L3.48301 14.7298L4.66786 14.2559C5.2485 14.0236 5.90436 14.0763 6.44045 14.3983L8.13372 15.4154C8.61602 15.7051 8.95399 16.1845 9.06477 16.7361L9.31922 18.0032H10.6801L10.9328 16.7381C11.0432 16.1853 11.3817 15.7048 11.865 15.4148L13.5602 14.3977C14.0962 14.0761 14.7517 14.0236 15.332 14.2557L16.5171 14.7298L17.2326 13.2989L16.3013 12.5997C15.7981 12.222 15.502 11.6295 15.502 11.0003V8.99971C15.502 8.37052 15.7981 7.77802 16.3013 7.40027L17.2326 6.7011L16.522 5.27991L15.3532 5.76336C14.7615 6.00808 14.0885 5.95474 13.5427 5.61987L11.8491 4.58058C11.3747 4.2895 11.0431 3.81391 10.9339 3.26816L10.6803 2Z" fill="#354A5F"/>
<path fill-rule="evenodd" clip-rule="evenodd" d="M6.00008 10C6.00008 7.79086 7.79094 6 10.0001 6C12.2092 6 14.0001 7.79086 14.0001 10C14.0001 12.2091 12.2092 14 10.0001 14C7.79094 14 6.00008 12.2091 6.00008 10ZM10.0001 8C8.89551 8 8.00008 8.89543 8.00008 10C8.00008 11.1046 8.89551 12 10.0001 12C11.1046 12 12.0001 11.1046 12.0001 10C12.0001 8.89543 11.1046 8 10.0001 8Z" fill="#354A5F"/>
</svg>
