<svg width="16" height="15" viewBox="0 0 16 15" fill="none" xmlns="http://www.w3.org/2000/svg">
<path fill-rule="evenodd" clip-rule="evenodd" d="M7.67078 0.75C7.67078 0.335786 8.00656 0 8.42078 0C12.5629 0 15.9208 3.35786 15.9208 7.5C15.9208 11.6421 12.5629 15 8.42078 15C4.27864 15 0.920776 11.6421 0.920776 7.5C0.920776 7.08579 1.25656 6.75 1.67078 6.75C2.08499 6.75 2.42078 7.08579 2.42078 7.5C2.42078 10.8137 5.10707 13.5 8.42078 13.5C11.7345 13.5 14.4208 10.8137 14.4208 7.5C14.4208 4.18629 11.7345 1.5 8.42078 1.5C8.00656 1.5 7.67078 1.16421 7.67078 0.75Z" fill="#354A5F"/>
<path fill-rule="evenodd" clip-rule="evenodd" d="M2.42078 3C2.42078 1.34315 3.76392 0 5.42078 0C5.83499 0 6.17078 0.335786 6.17078 0.75C6.17078 1.16421 5.83499 1.5 5.42078 1.5C4.59235 1.5 3.92078 2.17157 3.92078 3C3.92078 3.41493 4.08826 3.78932 4.36113 4.06168C4.55386 4.25404 5.314 4.9696 6.04152 5.65134C6.40187 5.98902 6.74958 6.31408 7.00724 6.55475L7.43178 6.95102L6.40926 8.0485L5.98333 7.65093C5.72532 7.40992 5.37698 7.08428 5.01585 6.74588C4.3004 6.07544 3.5158 5.33726 3.30148 5.12334C2.75822 4.58112 2.42078 3.82926 2.42078 3ZM7.46931 8.01148C7.18683 8.31443 6.71221 8.33099 6.40926 8.0485L7.43178 6.95102C7.73472 7.2335 7.75179 7.70853 7.46931 8.01148Z" fill="#354A5F"/>
<path fill-rule="evenodd" clip-rule="evenodd" d="M7.20779 4.55709C7.48804 4.67318 7.67078 4.94665 7.67078 5.25V7.5C7.67078 7.91421 7.33499 8.25 6.92078 8.25H4.67078C4.36743 8.25 4.09395 8.06727 3.97787 7.78701C3.86178 7.50676 3.92595 7.18417 4.14045 6.96967L6.39045 4.71967C6.60495 4.50517 6.92753 4.441 7.20779 4.55709Z" fill="#354A5F"/>
</svg>
