<svg width="16" height="16" viewBox="0 0 16 16" fill="none" xmlns="http://www.w3.org/2000/svg">
<path fill-rule="evenodd" clip-rule="evenodd" d="M7.67078 1.73718C7.67078 1.32297 8.00656 0.987183 8.42078 0.987183C12.5629 0.987183 15.9208 4.34505 15.9208 8.48718C15.9208 12.6293 12.5629 15.9872 8.42078 15.9872C4.27864 15.9872 0.920776 12.6293 0.920776 8.48718C0.920776 8.07297 1.25656 7.73718 1.67078 7.73718C2.08499 7.73718 2.42078 8.07297 2.42078 8.48718C2.42078 11.8009 5.10707 14.4872 8.42078 14.4872C11.7345 14.4872 14.4208 11.8009 14.4208 8.48718C14.4208 5.17347 11.7345 2.48718 8.42078 2.48718C8.00656 2.48718 7.67078 2.1514 7.67078 1.73718Z" fill="#354A5F"/>
<path fill-rule="evenodd" clip-rule="evenodd" d="M2.42078 3.98718C2.42078 2.33033 3.76392 0.987183 5.42078 0.987183C5.83499 0.987183 6.17078 1.32297 6.17078 1.73718C6.17078 2.1514 5.83499 2.48718 5.42078 2.48718C4.59235 2.48718 3.92078 3.15876 3.92078 3.98718C3.92078 4.40211 4.08826 4.77651 4.36113 5.04886C4.55386 5.24122 5.314 5.95678 6.04152 6.63852C6.40187 6.9762 6.74958 7.30126 7.00724 7.54193L7.43178 7.9382L6.40926 9.03569L5.98333 8.63811C5.72532 8.39711 5.37698 8.07147 5.01585 7.73306C4.3004 7.06262 3.5158 6.32444 3.30148 6.11052C2.75822 5.5683 2.42078 4.81644 2.42078 3.98718ZM7.46931 8.99866C7.18683 9.30161 6.71221 9.31817 6.40926 9.03569L7.43178 7.9382C7.73472 8.22069 7.75179 8.69571 7.46931 8.99866Z" fill="#354A5F"/>
<path fill-rule="evenodd" clip-rule="evenodd" d="M7.20779 5.54427C7.48804 5.66036 7.67078 5.93384 7.67078 6.23718V8.48718C7.67078 8.9014 7.33499 9.23718 6.92078 9.23718H4.67078C4.36743 9.23718 4.09395 9.05445 3.97787 8.7742C3.86178 8.49394 3.92595 8.17135 4.14045 7.95685L6.39045 5.70685C6.60495 5.49235 6.92753 5.42819 7.20779 5.54427Z" fill="#354A5F"/>
<path fill-rule="evenodd" clip-rule="evenodd" d="M8.43637 4.663C8.51884 4.25708 8.91475 3.99486 9.32067 4.07733C11.3747 4.4946 12.9208 6.30949 12.9208 8.48718C12.9208 10.9725 10.9061 12.9872 8.42078 12.9872C7.40885 12.9872 6.47298 12.6523 5.72091 12.0876C5.38968 11.8388 5.32279 11.3687 5.57151 11.0375C5.82022 10.7062 6.29036 10.6394 6.62159 10.8881C7.12285 11.2645 7.74472 11.4872 8.42078 11.4872C10.0776 11.4872 11.4208 10.144 11.4208 8.48718C11.4208 7.03684 10.3908 5.82538 9.02204 5.5473C8.61612 5.46484 8.35391 5.06892 8.43637 4.663Z" fill="#354A5F"/>
</svg>
