<svg width="13" height="13" viewBox="0 0 13 13" fill="none" xmlns="http://www.w3.org/2000/svg">
<path fill-rule="evenodd" clip-rule="evenodd" d="M11.9639 0.753465C12.3545 1.14399 12.3545 1.77715 11.9639 2.16768L1.96394 12.1677C1.57342 12.5582 0.940253 12.5582 0.549729 12.1677C0.159205 11.7772 0.159205 11.144 0.549729 10.7535L10.5497 0.753465C10.9403 0.36294 11.5734 0.36294 11.9639 0.753465Z" fill="#354A5F"/>
<path fill-rule="evenodd" clip-rule="evenodd" d="M0.549729 0.753465C0.940253 0.36294 1.57342 0.36294 1.96394 0.753465L11.9639 10.7535C12.3545 11.144 12.3545 11.7772 11.9639 12.1677C11.5734 12.5582 10.9403 12.5582 10.5497 12.1677L0.549729 2.16768C0.159205 1.77715 0.159205 1.14399 0.549729 0.753465Z" fill="#354A5F"/>
</svg>
