<svg width="16" height="16" viewBox="0 0 16 16" fill="none" xmlns="http://www.w3.org/2000/svg">
<path fill-rule="evenodd" clip-rule="evenodd" d="M5.42078 6.12476C5.42078 4.55278 6.89777 3.49976 8.42078 3.49976C9.77335 3.49976 11.0485 4.3075 11.3553 5.57582C11.4527 5.97842 11.2053 6.38375 10.8027 6.48115C10.4001 6.57855 9.99479 6.33114 9.89739 5.92854C9.78954 5.48276 9.24732 4.99976 8.42078 4.99976C7.4585 4.99976 6.92078 5.62566 6.92078 6.12476C6.92078 6.62385 7.4585 7.24976 8.42078 7.24976C8.83499 7.24976 9.17078 7.58554 9.17078 7.99976C9.17078 8.41397 8.83499 8.74976 8.42078 8.74976C6.89777 8.74976 5.42078 7.69673 5.42078 6.12476Z" fill="#354A5F"/>
<path fill-rule="evenodd" clip-rule="evenodd" d="M7.67078 7.99976C7.67078 7.58554 8.00656 7.24976 8.42078 7.24976C9.94379 7.24976 11.4208 8.30278 11.4208 9.87476C11.4208 11.4467 9.94379 12.4998 8.42078 12.4998C7.07004 12.4998 5.79696 11.6944 5.48759 10.4293C5.3892 10.0269 5.63561 9.62101 6.03797 9.52261C6.44033 9.42422 6.84627 9.67064 6.94466 10.073C7.05352 10.5182 7.59563 10.9998 8.42078 10.9998C9.38305 10.9998 9.92078 10.3738 9.92078 9.87476C9.92078 9.37566 9.38305 8.74976 8.42078 8.74976C8.00656 8.74976 7.67078 8.41397 7.67078 7.99976Z" fill="#354A5F"/>
<path fill-rule="evenodd" clip-rule="evenodd" d="M8.42078 0.499756C8.83499 0.499756 9.17078 0.835542 9.17078 1.24976V4.24976C9.17078 4.66397 8.83499 4.99976 8.42078 4.99976C8.00656 4.99976 7.67078 4.66397 7.67078 4.24976V1.24976C7.67078 0.835542 8.00656 0.499756 8.42078 0.499756Z" fill="#354A5F"/>
<path fill-rule="evenodd" clip-rule="evenodd" d="M8.42078 10.9998C8.83499 10.9998 9.17078 11.3355 9.17078 11.7498V14.7498C9.17078 15.164 8.83499 15.4998 8.42078 15.4998C8.00656 15.4998 7.67078 15.164 7.67078 14.7498V11.7498C7.67078 11.3355 8.00656 10.9998 8.42078 10.9998Z" fill="#354A5F"/>
<path fill-rule="evenodd" clip-rule="evenodd" d="M0.920776 7.99976C0.920776 3.85762 4.27864 0.499756 8.42078 0.499756C12.5629 0.499756 15.9208 3.85762 15.9208 7.99976C15.9208 12.1419 12.5629 15.4998 8.42078 15.4998C4.27864 15.4998 0.920776 12.1419 0.920776 7.99976ZM8.42078 1.99976C5.10707 1.99976 2.42078 4.68605 2.42078 7.99976C2.42078 11.3135 5.10707 13.9998 8.42078 13.9998C11.7345 13.9998 14.4208 11.3135 14.4208 7.99976C14.4208 4.68605 11.7345 1.99976 8.42078 1.99976Z" fill="#354A5F"/>
</svg>
