<svg width="25" height="25" viewBox="0 0 25 25" fill="none" xmlns="http://www.w3.org/2000/svg">
<g clip-path="url(#clip0)">
<path fill-rule="evenodd" clip-rule="evenodd" d="M14.5 17.5652C14.5 15.356 16.2909 13.5652 18.5 13.5652C20.7091 13.5652 22.5 15.356 22.5 17.5652C22.5 19.7743 20.7091 21.5652 18.5 21.5652C16.2909 21.5652 14.5 19.7743 14.5 17.5652ZM18.5 15.5652C17.3954 15.5652 16.5 16.4606 16.5 17.5652C16.5 18.6698 17.3954 19.5652 18.5 19.5652C19.6046 19.5652 20.5 18.6698 20.5 17.5652C20.5 16.4606 19.6046 15.5652 18.5 15.5652Z" />
<path fill-rule="evenodd" clip-rule="evenodd" d="M20.7929 19.8581C21.1834 19.4676 21.8166 19.4676 22.2071 19.8581L24.2071 21.8581C24.5976 22.2486 24.5976 22.8818 24.2071 23.2723C23.8166 23.6628 23.1834 23.6628 22.7929 23.2723L20.7929 21.2723C20.4024 20.8818 20.4024 20.2486 20.7929 19.8581Z" />
<path fill-rule="evenodd" clip-rule="evenodd" d="M11.5 13.5652C8.73858 13.5652 6.5 15.8038 6.5 18.5652V19.5652H11.5C12.0523 19.5652 12.5 20.0129 12.5 20.5652C12.5 21.1175 12.0523 21.5652 11.5 21.5652H5.5C4.94772 21.5652 4.5 21.1175 4.5 20.5652V18.5652C4.5 14.6992 7.63401 11.5652 11.5 11.5652H12.5C13.0523 11.5652 13.5 12.0129 13.5 12.5652C13.5 13.1175 13.0523 13.5652 12.5 13.5652H11.5Z" />
<path fill-rule="evenodd" clip-rule="evenodd" d="M7.5 8.56519C7.5 5.80376 9.73858 3.56519 12.5 3.56519C15.2614 3.56519 17.5 5.80376 17.5 8.56519C17.5 11.3266 15.2614 13.5652 12.5 13.5652C9.73858 13.5652 7.5 11.3266 7.5 8.56519ZM12.5 5.56519C10.8431 5.56519 9.5 6.90833 9.5 8.56519C9.5 10.222 10.8431 11.5652 12.5 11.5652C14.1569 11.5652 15.5 10.222 15.5 8.56519C15.5 6.90833 14.1569 5.56519 12.5 5.56519Z" />
</g>
<defs>
<clipPath id="clip0">
<rect width="24" height="24" fill="white" transform="translate(0.5 0.565186)"/>
</clipPath>
</defs>
</svg>
