<svg width="13" height="15" viewBox="0 0 13 15" fill="none" xmlns="http://www.w3.org/2000/svg">
<path fill-rule="evenodd" clip-rule="evenodd" d="M0.420776 0.75C0.420776 0.335786 0.756563 0 1.17078 0H7.17078C7.36969 0 7.56045 0.0790176 7.70111 0.21967L12.2011 4.71967C12.3418 4.86032 12.4208 5.05109 12.4208 5.25V14.25C12.4208 14.6642 12.085 15 11.6708 15H1.17078C0.756563 15 0.420776 14.6642 0.420776 14.25V0.75ZM1.92078 1.5V13.5H10.9208V5.56066L6.86012 1.5H1.92078Z" fill="#354A5F"/>
<path fill-rule="evenodd" clip-rule="evenodd" d="M3.42078 11.25C3.42078 10.8358 3.75656 10.5 4.17078 10.5H8.67078C9.08499 10.5 9.42078 10.8358 9.42078 11.25C9.42078 11.6642 9.08499 12 8.67078 12H4.17078C3.75656 12 3.42078 11.6642 3.42078 11.25Z" fill="#354A5F"/>
<path fill-rule="evenodd" clip-rule="evenodd" d="M3.42078 8.25C3.42078 7.83579 3.75656 7.5 4.17078 7.5H8.67078C9.08499 7.5 9.42078 7.83579 9.42078 8.25C9.42078 8.66421 9.08499 9 8.67078 9H4.17078C3.75656 9 3.42078 8.66421 3.42078 8.25Z" fill="#354A5F"/>
<path fill-rule="evenodd" clip-rule="evenodd" d="M10.9208 5.25H8.67078C7.84235 5.25 7.17078 4.57843 7.17078 3.75V1.5" fill="#354A5F"/>
</svg>
