<svg width="20" height="21" viewBox="0 0 20 21" fill="none" xmlns="http://www.w3.org/2000/svg">
<path fill-rule="evenodd" clip-rule="evenodd" d="M14.8663 3.14081C14.5566 2.81537 14.0543 2.81537 13.7445 3.14081L11.365 5.64072L3.43277 13.9741C3.28401 14.1304 3.20044 14.3424 3.20044 14.5634V17.0634C3.20044 17.5236 3.55557 17.8967 3.99365 17.8967H6.37329C6.58367 17.8967 6.78542 17.8089 6.93418 17.6527L14.8661 9.31955L17.246 6.81932C17.5557 6.49388 17.5557 5.96624 17.246 5.64081L14.8663 3.14081ZM14.3054 7.55155L15.5633 6.23006L14.3054 4.90857L13.0476 6.23006L14.3054 7.55155ZM11.9258 7.40857L5.11543 14.5634L6.37329 15.8849L13.1837 8.73006L11.9258 7.40857Z" fill="#5B738B"/>
</svg>
