<svg width="18" height="18" viewBox="0 0 18 18" fill="none" xmlns="http://www.w3.org/2000/svg">
<path fill-rule="evenodd" clip-rule="evenodd" d="M0.666656 8.9374C0.666656 4.33503 4.39762 0.604065 8.99999 0.604065C13.6024 0.604065 17.3333 4.33503 17.3333 8.9374C17.3333 13.5398 13.6024 17.2707 8.99999 17.2707C4.39762 17.2707 0.666656 13.5398 0.666656 8.9374ZM8.99999 2.27073C5.31809 2.27073 2.33332 5.2555 2.33332 8.9374C2.33332 12.6193 5.31809 15.6041 8.99999 15.6041C12.6819 15.6041 15.6667 12.6193 15.6667 8.9374C15.6667 5.2555 12.6819 2.27073 8.99999 2.27073Z" fill="#A9B4BE"/>
<path fill-rule="evenodd" clip-rule="evenodd" d="M8.99999 6.85407C9.69035 6.85407 10.25 6.29442 10.25 5.60406C10.25 4.91371 9.69035 4.35407 8.99999 4.35407C8.30963 4.35407 7.74999 4.91371 7.74999 5.60406C7.74999 6.29442 8.30963 6.85407 8.99999 6.85407Z" fill="#A9B4BE"/>
<path fill-rule="evenodd" clip-rule="evenodd" d="M8.99999 8.52073C9.46023 8.52073 9.83332 8.89383 9.83332 9.35406V12.6874C9.83332 13.1476 9.46023 13.5207 8.99999 13.5207C8.53975 13.5207 8.16666 13.1476 8.16666 12.6874V9.35406C8.16666 8.89383 8.53975 8.52073 8.99999 8.52073Z" fill="#A9B4BE"/>
</svg>
