<svg width="25" height="24" viewBox="0 0 25 24" fill="none" xmlns="http://www.w3.org/2000/svg">
<path fill-rule="evenodd" clip-rule="evenodd" d="M18.6261 6.35982C18.9797 6.78409 18.9224 7.41466 18.4981 7.76822L13.42 12L18.4981 16.2318C18.9224 16.5853 18.9797 17.2159 18.6261 17.6402C18.2726 18.0645 17.642 18.1218 17.2177 17.7682L11.2177 12.7682C10.9897 12.5782 10.8579 12.2968 10.8579 12C10.8579 11.7032 10.9897 11.4218 11.2177 11.2318L17.2177 6.23178C17.642 5.87821 18.2726 5.93554 18.6261 6.35982Z" fill="#1B90FF"/>
<path fill-rule="evenodd" clip-rule="evenodd" d="M7.85791 4C8.41019 4 8.85791 4.44772 8.85791 5V19C8.85791 19.5523 8.41019 20 7.85791 20C7.30563 20 6.85791 19.5523 6.85791 19V5C6.85791 4.44772 7.30563 4 7.85791 4Z" fill="#1B90FF"/>
</svg>
