<svg width="15" height="16" viewBox="0 0 15 16" fill="none" xmlns="http://www.w3.org/2000/svg">
<path fill-rule="evenodd" clip-rule="evenodd" d="M0.670776 3.97437C0.670776 2.73172 1.67814 1.72437 2.92078 1.72437H11.9208C13.1634 1.72437 14.1708 2.73172 14.1708 3.97437V12.9744C14.1708 14.217 13.1634 15.2244 11.9208 15.2244H2.92078C1.67814 15.2244 0.670776 14.217 0.670776 12.9744V3.97437ZM2.92078 3.22437C2.50656 3.22437 2.17078 3.56015 2.17078 3.97437V12.9744C2.17078 13.3886 2.50656 13.7244 2.92078 13.7244H11.9208C12.335 13.7244 12.6708 13.3886 12.6708 12.9744V3.97437C12.6708 3.56015 12.335 3.22437 11.9208 3.22437H2.92078Z" fill="#354A5F"/>
<path fill-rule="evenodd" clip-rule="evenodd" d="M5.17078 0.224365C5.58499 0.224365 5.92078 0.560152 5.92078 0.974365V3.97437C5.92078 4.38858 5.58499 4.72437 5.17078 4.72437C4.75656 4.72437 4.42078 4.38858 4.42078 3.97437V0.974365C4.42078 0.560152 4.75656 0.224365 5.17078 0.224365Z" fill="#354A5F"/>
<path fill-rule="evenodd" clip-rule="evenodd" d="M0.670776 6.97437C0.670776 6.56015 1.00656 6.22437 1.42078 6.22437H13.4208C13.835 6.22437 14.1708 6.56015 14.1708 6.97437C14.1708 7.38858 13.835 7.72437 13.4208 7.72437H1.42078C1.00656 7.72437 0.670776 7.38858 0.670776 6.97437Z" fill="#354A5F"/>
<path fill-rule="evenodd" clip-rule="evenodd" d="M9.67078 0.224365C10.085 0.224365 10.4208 0.560152 10.4208 0.974365V3.97437C10.4208 4.38858 10.085 4.72437 9.67078 4.72437C9.25656 4.72437 8.92078 4.38858 8.92078 3.97437V0.974365C8.92078 0.560152 9.25656 0.224365 9.67078 0.224365Z" fill="#354A5F"/>
</svg>
