<svg width="24" height="24" viewBox="0 0 24 24" fill="none" xmlns="http://www.w3.org/2000/svg">
<path fill-rule="evenodd" clip-rule="evenodd" d="M6 4C5.44772 4 5 4.44772 5 5V19C5 19.5523 5.44772 20 6 20H16C16.5523 20 17 20.4477 17 21C17 21.5523 16.5523 22 16 22H6C4.34315 22 3 20.6569 3 19V5C3 3.34315 4.34315 2 6 2H16C16.5523 2 17 2.44772 17 3C17 3.55228 16.5523 4 16 4H6Z" fill="#354A5F"/>
<path fill-rule="evenodd" clip-rule="evenodd" d="M11.3827 8.07612C11.7564 8.2309 12 8.59554 12 9V15C12 15.4045 11.7564 15.7691 11.3827 15.9239C11.009 16.0787 10.5789 15.9931 10.2929 15.7071L7.29289 12.7071C6.90237 12.3166 6.90237 11.6834 7.29289 11.2929L10.2929 8.29289C10.5789 8.0069 11.009 7.92134 11.3827 8.07612Z" fill="#354A5F"/>
<path fill-rule="evenodd" clip-rule="evenodd" d="M9 12C9 11.4477 9.44772 11 10 11H20C20.5523 11 21 11.4477 21 12C21 12.5523 20.5523 13 20 13H10C9.44772 13 9 12.5523 9 12Z" fill="#354A5F"/>
</svg>
