<svg width="24" height="25" viewBox="0 0 24 25" fill="none" xmlns="http://www.w3.org/2000/svg">
<path fill-rule="evenodd" clip-rule="evenodd" d="M10 13.0652C10 12.5129 10.4477 12.0652 11 12.0652H20C20.5523 12.0652 21 12.5129 21 13.0652C21 13.6175 20.5523 14.0652 20 14.0652H11C10.4477 14.0652 10 13.6175 10 13.0652Z" fill="#354A5F"/>
<path fill-rule="evenodd" clip-rule="evenodd" d="M10 9.06519C10 8.5129 10.4477 8.06519 11 8.06519H17C17.5523 8.06519 18 8.5129 18 9.06519C18 9.61747 17.5523 10.0652 17 10.0652H11C10.4477 10.0652 10 9.61747 10 9.06519Z" fill="#354A5F"/>
<path fill-rule="evenodd" clip-rule="evenodd" d="M10 5.06519C10 4.5129 10.4477 4.06519 11 4.06519H14C14.5523 4.06519 15 4.5129 15 5.06519C15 5.61747 14.5523 6.06519 14 6.06519H11C10.4477 6.06519 10 5.61747 10 5.06519Z" fill="#354A5F"/>
<path fill-rule="evenodd" clip-rule="evenodd" d="M7.00003 4.06519C7.55231 4.06519 8.00003 4.5129 8.00003 5.06519V17.0652C8.00003 17.6175 7.55231 18.0652 7.00003 18.0652C6.44774 18.0652 6.00003 17.6175 6.00003 17.0652V5.06519C6.00003 4.5129 6.44774 4.06519 7.00003 4.06519Z" fill="#354A5F"/>
<path fill-rule="evenodd" clip-rule="evenodd" d="M3.07615 16.6825C3.23093 16.3088 3.59557 16.0652 4.00003 16.0652H10C10.4045 16.0652 10.7691 16.3088 10.9239 16.6825C11.0787 17.0562 10.9931 17.4863 10.7071 17.7723L7.70714 20.7723C7.31661 21.1628 6.68345 21.1628 6.29292 20.7723L3.29292 17.7723C3.00692 17.4863 2.92137 17.0562 3.07615 16.6825Z" fill="#354A5F"/>
</svg>
