<svg width="19" height="14" viewBox="0 0 19 14" fill="none" xmlns="http://www.w3.org/2000/svg">
<path fill-rule="evenodd" clip-rule="evenodd" d="M9.42078 3C7.34971 3 5.67078 4.67893 5.67078 6.75C5.67078 7.16421 5.33499 7.5 4.92078 7.5H4.17078C2.92814 7.5 1.92078 8.50736 1.92078 9.75C1.92078 10.9926 2.92814 12 4.17078 12H13.9208C15.5776 12 16.9208 10.6569 16.9208 9C16.9208 8.58579 17.2566 8.25 17.6708 8.25C18.085 8.25 18.4208 8.58579 18.4208 9C18.4208 11.4853 16.4061 13.5 13.9208 13.5H4.17078C2.09971 13.5 0.420776 11.8211 0.420776 9.75C0.420776 7.67893 2.09971 6 4.17078 6H4.22394C4.58787 3.45578 6.77592 1.5 9.42078 1.5C9.83499 1.5 10.1708 1.83579 10.1708 2.25C10.1708 2.66421 9.83499 3 9.42078 3Z" fill="#354A5F"/>
<path fill-rule="evenodd" clip-rule="evenodd" d="M14.6708 1.11759e-08C15.085 1.11759e-08 15.4208 0.335786 15.4208 0.75V8.25C15.4208 8.66421 15.085 9 14.6708 9C14.2566 9 13.9208 8.66421 13.9208 8.25V0.75C13.9208 0.335786 14.2566 1.11759e-08 14.6708 1.11759e-08Z" fill="#354A5F"/>
<path fill-rule="evenodd" clip-rule="evenodd" d="M14.1404 0.21967C14.4333 -0.0732233 14.9082 -0.0732233 15.2011 0.21967L17.4511 2.46967C17.744 2.76256 17.744 3.23744 17.4511 3.53033C17.1582 3.82322 16.6833 3.82322 16.3904 3.53033L14.6708 1.81066L12.9511 3.53033C12.6582 3.82322 12.1833 3.82322 11.8904 3.53033C11.5976 3.23744 11.5976 2.76256 11.8904 2.46967L14.1404 0.21967Z" fill="#354A5F"/>
</svg>
