<svg width="24" height="25" viewBox="0 0 24 25" fill="none" xmlns="http://www.w3.org/2000/svg">
<path fill-rule="evenodd" clip-rule="evenodd" d="M11 13.5652C8.23858 13.5652 6 15.8038 6 18.5652V19.5652H18V18.5652C18 15.8038 15.7614 13.5652 13 13.5652H11ZM4 18.5652C4 14.6992 7.13401 11.5652 11 11.5652H13C16.866 11.5652 20 14.6992 20 18.5652V20.5652C20 21.1175 19.5523 21.5652 19 21.5652H5C4.44772 21.5652 4 21.1175 4 20.5652V18.5652Z"/>
<path fill-rule="evenodd" clip-rule="evenodd" d="M7 8.56519C7 5.80376 9.23858 3.56519 12 3.56519C14.7614 3.56519 17 5.80376 17 8.56519C17 11.3266 14.7614 13.5652 12 13.5652C9.23858 13.5652 7 11.3266 7 8.56519ZM12 5.56519C10.3431 5.56519 9 6.90833 9 8.56519C9 10.222 10.3431 11.5652 12 11.5652C13.6569 11.5652 15 10.222 15 8.56519C15 6.90833 13.6569 5.56519 12 5.56519Z"/>
</svg>
