<svg width="22" height="21" viewBox="0 0 22 21" fill="none" xmlns="http://www.w3.org/2000/svg">
<path fill-rule="evenodd" clip-rule="evenodd" d="M0.91333 10.3693C0.91333 4.84642 5.39048 0.369263 10.9133 0.369263C12.669 0.369263 14.3219 0.82259 15.7581 1.61934C16.2411 1.88726 16.4154 2.49596 16.1474 2.9789C15.8795 3.46185 15.2708 3.63617 14.7879 3.36825C13.6409 2.73196 12.321 2.36926 10.9133 2.36926C6.49505 2.36926 2.91333 5.95098 2.91333 10.3693C2.91333 14.7875 6.49505 18.3693 10.9133 18.3693C15.3316 18.3693 18.9133 14.7875 18.9133 10.3693C18.9133 9.95754 18.8823 9.5537 18.8226 9.15982C18.7399 8.61376 19.1155 8.10404 19.6616 8.02132C20.2076 7.9386 20.7174 8.31421 20.8001 8.86027C20.8747 9.35296 20.9133 9.85692 20.9133 10.3693C20.9133 15.8921 16.4362 20.3693 10.9133 20.3693C5.39048 20.3693 0.91333 15.8921 0.91333 10.3693Z" fill="white"/>
<path fill-rule="evenodd" clip-rule="evenodd" d="M21.6204 1.66216C22.011 2.05268 22.011 2.68585 21.6204 3.07637L11.6204 13.0764C11.2299 13.4669 10.5967 13.4669 10.2062 13.0764L7.20622 10.0764C6.8157 9.68585 6.8157 9.05268 7.20622 8.66216C7.59675 8.27163 8.22991 8.27163 8.62044 8.66216L10.9133 10.955L20.2062 1.66216C20.5967 1.27163 21.2299 1.27163 21.6204 1.66216Z" fill="white"/>
</svg>
